<?xml version="1.0" encoding="UTF-8"?>
<svg version="1.1" xmlns="http://www.w3.org/2000/svg" width="540" height="235">
<path d="M0 0 C178.2 0 356.4 0 540 0 C540 77.55 540 155.1 540 235 C361.8 235 183.6 235 0 235 C0 157.45 0 79.9 0 0 Z " fill="#0F041A" transform="translate(0,0)"/>
<path d="M0 0 C0.495 3.465 0.495 3.465 1 7 C1.99 7 2.98 7 4 7 C6.82847182 15.98455753 5.73826064 24.75178897 5 34 C6.65 33.67 8.3 33.34 10 33 C10.33 31.68 10.66 30.36 11 29 C17.34886348 29.25913728 20.6688614 31.38745974 25 36 C25.33 36.66 25.66 37.32 26 38 C28.24183208 38.76794377 28.24183208 38.76794377 30.875 39.25 C31.75929688 39.44078125 32.64359375 39.6315625 33.5546875 39.828125 C36.25950586 40.26876057 36.25950586 40.26876057 39 38 C40.54786311 32.5121217 40.0749967 26.65475101 40 21 C39.79645002 5.65233133 39.79645002 5.65233133 42.3828125 2.1015625 C45.55718781 -0.58882733 47.34512199 -1.9080873 51.5625 -2.5 C58.01204819 -1.5618839 58.01204819 -1.5618839 61 0 C62.73368312 3.2880197 63.82846016 6.48538049 65 10 C65.99 10.495 65.99 10.495 67 11 C70.3300328 21.81634715 66.15780443 36.87665009 62 47 C61.01 47.495 61.01 47.495 60 48 C58.74843159 51.42215347 58.74843159 51.42215347 58 55 C58.33 55.66 58.66 56.32 59 57 C59 60 59 60 57.25 62.0625 C50.46800104 67.90255466 41.95028787 68.3168099 33.375 68.1875 C32.55515625 68.18685547 31.7353125 68.18621094 30.890625 68.18554688 C26.51237441 68.15387143 22.27752082 68.03616964 18 67 C16.375 65.0625 16.375 65.0625 15 63 C14.38125 62.690625 13.7625 62.38125 13.125 62.0625 C10.17355317 60.58677659 8.29362267 58.35096324 6 56 C4.67940483 54.98323741 3.34826395 53.97977656 2 53 C1.56429687 53.60328125 1.12859375 54.2065625 0.6796875 54.828125 C-4.36415432 61.59691705 -8.75860238 66.02699639 -17.24609375 67.62109375 C-26.48003357 68.89157909 -34.99060446 69.6870127 -44 67 C-44 66.01 -44 65.02 -44 64 C-45.98 63.34 -47.96 62.68 -50 62 C-50 61.34 -50 60.68 -50 60 C-50.58265625 59.80664062 -51.1653125 59.61328125 -51.765625 59.4140625 C-54.91220408 57.42269602 -56.13829761 54.61223913 -57.75 51.375 C-58.06582031 50.76398438 -58.38164062 50.15296875 -58.70703125 49.5234375 C-59.48175518 48.02094261 -60.24229671 46.51114982 -61 45 C-61.33 45 -61.66 45 -62 45 C-61.67 42.69 -61.34 40.38 -61 38 C-60.34 38 -59.68 38 -59 38 C-59.495 36.515 -59.495 36.515 -60 35 C-57.07120162 30.60680243 -53.10282345 29.49215017 -48.0625 28.3125 C-47.381875 28.209375 -46.70125 28.10625 -46 28 C-46 28.66 -46 29.32 -46 30 C-45.443125 30.268125 -44.88625 30.53625 -44.3125 30.8125 C-43.1678125 31.4003125 -43.1678125 31.4003125 -42 32 C-41.113125 32.45375 -40.22625 32.9075 -39.3125 33.375 C-36.65063719 35.24549819 -36.57269174 35.94144851 -36 39 C-34.58376784 39.05447047 -33.16691809 39.09300508 -31.75 39.125 C-30.96109375 39.14820313 -30.1721875 39.17140625 -29.359375 39.1953125 C-26.77783437 38.98160881 -25.26197418 38.206108 -23 37 C-23.02094727 36.30028076 -23.04189453 35.60056152 -23.06347656 34.87963867 C-23.14762934 31.64907736 -23.19897071 28.41874774 -23.25 25.1875 C-23.28351563 24.08728516 -23.31703125 22.98707031 -23.3515625 21.85351562 C-23.438885 14.45293396 -22.81303403 7.51546137 -19 1 C-12.91914529 -3.21132225 -6.74154069 -1.95631348 0 0 Z " fill="#15133C" transform="translate(224,79)"/>
<path d="M0 0 C2.88055275 2.73652511 4.41521617 5.05270913 5 9 C5.66 8.67 6.32 8.34 7 8 C7 9.98 7 11.96 7 14 C7.99 14 8.98 14 10 14 C10 15.65 10 17.3 10 19 C10.66 19 11.32 19 12 19 C12 20.65 12 22.3 12 24 C12.66 24 13.32 24 14 24 C14.495 26.475 14.495 26.475 15 29 C15.33 29 15.66 29 16 29 C16 31.31 16 33.62 16 36 C16.99 36 17.98 36 19 36 C20.60355101 39.50776784 21.22036864 42.14354879 21 46 C21.66 46 22.32 46 23 46 C23.28875 46.7425 23.5775 47.485 23.875 48.25 C24.8653571 50.9200384 24.8653571 50.9200384 26.1875 52.8125 C27.51246584 56.37971573 27.36107291 59.51725461 26 63 C22.56274804 66.95450833 19.32897514 68.84995442 14.125 69.4375 C11 69 11 69 9 68 C9 67.34 9 66.68 9 66 C7.35 65.67 5.7 65.34 4 65 C4 64.34 4 63.68 4 63 C2.989375 63.020625 1.97875 63.04125 0.9375 63.0625 C-3 63 -3 63 -6.6875 62.4375 C-10.49982642 61.88612956 -10.49982642 61.88612956 -14 63 C-14.804375 63.825 -15.60875 64.65 -16.4375 65.5 C-21.34851606 69.9034175 -28.76700612 69 -35 69 C-35 68.34 -35 67.68 -35 67 C-34.01 66.505 -34.01 66.505 -33 66 C-33.66 65.67 -34.32 65.34 -35 65 C-35 64.34 -35 63.68 -35 63 C-35.99 63 -36.98 63 -38 63 C-38.2057974 57.21480651 -38.1804258 52.4510645 -36 47 C-34.61834628 42.36739635 -33.51807377 37.79091353 -32.63671875 33.04296875 C-31.13625154 25.59282287 -28.45156452 18.75871211 -25 12 C-24.690625 11.360625 -24.38125 10.72125 -24.0625 10.0625 C-21.63077464 5.34209194 -19.54014306 1.95637223 -15 -1 C-9.88705153 -2.62684724 -4.94549379 -1.91802421 0 0 Z " fill="#161745" transform="translate(327,78)"/>
<path d="M0 0 C2.3828125 -0.29296875 2.3828125 -0.29296875 5.125 -0.1875 C6.03507812 -0.16042969 6.94515625 -0.13335937 7.8828125 -0.10546875 C8.58148438 -0.07066406 9.28015625 -0.03585938 10 0 C14.30233723 8.09067843 17.67652553 16.47779452 21 25 C21.64349407 26.62592776 22.28902884 28.25105085 22.9375 29.875 C23.24042969 30.63554688 23.54335938 31.39609375 23.85546875 32.1796875 C24.82384957 34.56593649 25.80836235 36.94401208 26.80078125 39.3203125 C27.12119385 40.09004395 27.44160645 40.85977539 27.77172852 41.65283203 C28.41630068 43.19935481 29.0638541 44.74463891 29.71459961 46.28857422 C32 51.7772766 32 51.7772766 32 54 C28.7 54 25.4 54 22 54 C21.01 51.03 20.02 48.06 19 45 C9.76 45 0.52 45 -9 45 C-9.99 47.97 -10.98 50.94 -12 54 C-15.3 54 -18.6 54 -22 54 C-19.92098874 47.56984289 -17.59894652 41.29993394 -15.05859375 35.0390625 C-14.69024918 34.12667816 -14.3219046 33.21429382 -13.94239807 32.27426147 C-13.16976158 30.36278561 -12.39573108 28.45187268 -11.62036133 26.54150391 C-10.43309163 23.61413056 -9.25243996 20.68414619 -8.07226562 17.75390625 C-7.31810411 15.89046478 -6.5635604 14.02717792 -5.80859375 12.1640625 C-5.45647324 11.28908112 -5.10435272 10.41409973 -4.74156189 9.51260376 C-4.41104324 8.701008 -4.0805246 7.88941223 -3.73999023 7.05322266 C-3.4514769 6.34090485 -3.16296356 5.62858704 -2.8657074 4.89468384 C-2 3 -2 3 0 0 Z " fill="#B082E3" transform="translate(314,85)"/>
<path d="M0 0 C1.19844543 -0.01283524 2.39689087 -0.02567047 3.63165283 -0.03889465 C5.57693878 -0.04997505 5.57693878 -0.04997505 7.56152344 -0.0612793 C8.22302147 -0.06535482 8.8845195 -0.06943035 9.56606293 -0.07362938 C13.06894109 -0.09447211 16.57178032 -0.10878026 20.07470703 -0.11816406 C23.68047697 -0.12921134 27.28562687 -0.16359578 30.89117813 -0.20333576 C33.67428683 -0.22956968 36.45724944 -0.23786193 39.24047089 -0.24144554 C41.21185619 -0.24864359 43.18314136 -0.27505471 45.15435791 -0.30183411 C52.00573864 -0.28528309 56.67703317 -0.10480544 62.17089844 4.17700195 C63.61520698 7.06561905 63.54778349 8.97347897 63.17089844 12.17700195 C60.73339844 14.98950195 60.73339844 14.98950195 58.17089844 17.17700195 C57.67589844 17.67200195 57.67589844 17.67200195 57.17089844 18.17700195 C55.17316299 18.29737018 53.17115236 18.34724576 51.16992188 18.36987305 C49.88478699 18.38593597 48.5996521 18.4019989 47.27557373 18.41854858 C45.86048033 18.4300363 44.44537957 18.44064479 43.03027344 18.45043945 C42.32031471 18.45576313 41.61035599 18.46108681 40.87888336 18.46657181 C37.11897358 18.49332578 33.35909721 18.51269079 29.59912109 18.52709961 C25.71721797 18.54372663 21.83616734 18.58847986 17.95458603 18.63947105 C14.96910649 18.67315782 11.98382855 18.68467865 8.99817657 18.69032669 C7.56762449 18.69703858 6.13708565 18.71225943 4.70671844 18.7362175 C2.701197 18.76788417 0.69521972 18.76490301 -1.31054688 18.76049805 C-2.45114563 18.7685849 -3.59174438 18.77667175 -4.76690674 18.78500366 C-8.80891617 17.98245883 -10.30047587 16.36463997 -12.82910156 13.17700195 C-13.51487765 8.90995077 -13.32933271 6.97047204 -11.01660156 3.30200195 C-7.56311191 -0.05281657 -4.61675733 0.04304294 0 0 Z " fill="#B283E4" transform="translate(397.8291015625,36.822998046875)"/>
<path d="M0 0 C1.82769928 -0.02409439 1.82769928 -0.02409439 3.69232178 -0.04867554 C9.26493105 -0.09314713 14.83741165 -0.13462704 20.41015625 -0.15722656 C23.34927589 -0.17055222 26.28769899 -0.19838122 29.2265625 -0.23925781 C32.78330606 -0.28872103 36.33941923 -0.31336394 39.896492 -0.32045364 C41.90117395 -0.33038167 43.9056885 -0.36459227 45.91009521 -0.39926147 C56.09251675 -0.37568835 56.09251675 -0.37568835 60.41992188 2.50683594 C63.07910156 5.19287109 63.07910156 5.19287109 63.76660156 8.69287109 C62.99289407 12.63174561 61.89402689 14.37794576 59.07910156 17.19287109 C56.31208812 18.57637781 54.04520186 18.34309218 50.94873047 18.36987305 C49.66044342 18.38270828 48.37215637 18.39554352 47.04483032 18.4087677 C45.6317788 18.4169344 44.21872295 18.42437827 42.80566406 18.43115234 C42.09537426 18.43522787 41.38508446 18.4393034 40.65327072 18.44350243 C36.89450114 18.46436079 33.13576806 18.47866403 29.37695312 18.48803711 C25.49399241 18.4991072 21.61160389 18.53351375 17.7288456 18.57320881 C14.7434075 18.59934727 11.7581064 18.60772637 8.77256393 18.61131859 C7.34121202 18.61619103 5.90986648 18.62782388 4.47862625 18.64635658 C2.47531161 18.67068643 0.47171898 18.66736929 -1.53173828 18.6628418 C-2.67154144 18.66870804 -3.8113446 18.67457428 -4.98568726 18.68061829 C-8.56705141 18.08549916 -9.73616123 17.03835779 -11.92089844 14.19287109 C-12.41699219 11.72021484 -12.41699219 11.72021484 -12.35839844 9.13037109 C-12.35646484 7.84453125 -12.35646484 7.84453125 -12.35449219 6.53271484 C-11.83904662 3.75116623 -11.15508229 2.88033702 -8.92089844 1.19287109 C-5.72086864 0.1261945 -3.36503054 0.04030714 0 0 Z " fill="#AE80DF" transform="translate(29.9208984375,36.80712890625)"/>
<path d="M0 0 C1.30500458 -0.00938095 2.61000916 -0.0187619 3.95455933 -0.02842712 C5.38133395 -0.01794695 6.80810227 -0.00657768 8.23486328 0.00561523 C9.69833447 0.00546025 11.16180607 0.00397136 12.62527466 0.00120544 C15.6937269 -0.00017952 18.7617123 0.01239193 21.83007812 0.03515625 C25.75661296 0.06349165 29.68236912 0.0608188 33.60896111 0.04806614 C36.63223882 0.04109731 39.65533779 0.0489127 42.67859268 0.06132317 C44.12581826 0.06582956 45.5730631 0.06618157 47.02029037 0.06225777 C49.04741332 0.05933539 51.07453228 0.07804897 53.1015625 0.09765625 C54.25389374 0.10305923 55.40622498 0.10846222 56.59347534 0.11402893 C60.31578496 0.58153954 63.00741722 1.82895042 65.68017578 4.50170898 C66.07672349 8.62580513 66.10578807 10.82659983 63.86767578 14.37670898 C60.35556725 17.78847156 57.31592086 17.63670232 52.61987305 17.67871094 C51.37170303 17.69154617 50.12353302 17.70438141 48.83753967 17.71760559 C47.47389116 17.72577174 46.11023816 17.73321571 44.74658203 17.73999023 C44.05927443 17.74406576 43.37196682 17.74814129 42.66383171 17.75234032 C39.02825091 17.77317545 35.39270761 17.78749005 31.75708008 17.796875 C28.00305521 17.80795452 24.24962063 17.8423784 20.49580479 17.8820467 C17.60730383 17.90818494 14.71894444 17.91656411 11.83033562 17.92015648 C10.44643082 17.92502712 9.06253254 17.93665491 7.67874336 17.95519447 C5.74259838 17.979529 3.80616566 17.9762067 1.86987305 17.97167969 C0.76861588 17.97754593 -0.3326413 17.98341217 -1.4672699 17.98945618 C-4.98482582 17.38800294 -6.12227143 16.25005577 -8.31982422 13.50170898 C-9.84829083 10.44477576 -9.55224867 7.87186351 -9.31982422 4.50170898 C-7.04113597 0.03800314 -4.80459015 0.00069379 0 0 Z " fill="#B283E5" transform="translate(319.31982421875,158.498291015625)"/>
<path d="M0 0 C2.97 0 5.94 0 9 0 C9.07448116 5.28357911 9.12875795 10.56684863 9.16479492 15.85083008 C9.17982716 17.64613167 9.20025857 19.44139688 9.22631836 21.23657227 C9.26294786 23.82577526 9.2797821 26.41449028 9.29296875 29.00390625 C9.30845261 29.79898087 9.32393646 30.59405548 9.33988953 31.41322327 C9.34184678 37.98014768 8.01157341 42.60785865 3.6875 47.75 C-4.35470671 54.48301027 -12.87790744 54.79624219 -23 54 C-30.13861245 52.20605182 -34.77914709 49.48991172 -38.75 43.25 C-40.31108843 39.19117007 -40.22346982 36.32041653 -40 32 C-37.03 32 -34.06 32 -31 32 C-30.731875 33.258125 -30.46375 34.51625 -30.1875 35.8125 C-29.39041592 38.98960977 -28.81455019 41.08610587 -26 43 C-22.57008462 44.14330513 -19.8013584 44.20381651 -16.1875 44.25 C-14.38345703 44.28867188 -14.38345703 44.28867188 -12.54296875 44.328125 C-8.64893771 43.96748706 -6.30227377 43.0633185 -3 41 C-0.42930383 37.14395575 -0.64934944 33.87253657 -0.5859375 29.39453125 C-0.56657135 28.55532639 -0.5472052 27.71612152 -0.5272522 26.85148621 C-0.46748787 24.17192742 -0.42108388 21.4923256 -0.375 18.8125 C-0.3368173 16.99542401 -0.29776539 15.17836606 -0.2578125 13.36132812 C-0.16178897 8.90769868 -0.07774641 4.45398449 0 0 Z " fill="#B081E3" transform="translate(211,85)"/>
<path d="M0 0 C2.97 0 5.94 0 9 0 C9.09955505 5.24693388 9.1717896 10.49330697 9.21972656 15.7409668 C9.23972905 17.52263986 9.26694023 19.30424823 9.30175781 21.08569336 C9.69809476 41.89921141 9.69809476 41.89921141 2.8125 49.375 C-6.08911945 54.51815791 -15.88059308 55.67126661 -25.9453125 53.30859375 C-31.54415997 51.31139294 -34.79579403 49.00657183 -38 44 C-39.80778959 39.86790951 -40.21382122 36.49024569 -40 32 C-37.03 32 -34.06 32 -31 32 C-30.731875 33.258125 -30.46375 34.51625 -30.1875 35.8125 C-29.39041592 38.98960977 -28.81455019 41.08610587 -26 43 C-22.43559582 44.18813473 -19.44525218 44.24187953 -15.6875 44.3125 C-14.39199219 44.34988281 -13.09648437 44.38726562 -11.76171875 44.42578125 C-7.43822145 43.93641343 -5.34299749 42.72598434 -2 40 C-0.36342246 36.72684491 -0.7569193 33.09377769 -0.68359375 29.4921875 C-0.66281265 28.65156769 -0.64203156 27.81094788 -0.62062073 26.94485474 C-0.55514561 24.25498765 -0.4962498 21.56502157 -0.4375 18.875 C-0.39431284 17.05337511 -0.35069848 15.23176029 -0.30664062 13.41015625 C-0.19946632 8.94020606 -0.09819315 4.47015614 0 0 Z " fill="#B182E4" transform="translate(273,85)"/>
<path d="M0 0 C2.75735107 1.79548442 3.72076912 2.65646117 4.6875 5.75 C4.6875 6.74 4.6875 7.73 4.6875 8.75 C5.3475 9.08 6.0075 9.41 6.6875 9.75 C9.97816278 20.43846857 5.95867738 35.78391944 1.6875 45.75 C0.6975 46.08 -0.2925 46.41 -1.3125 46.75 C-0.9825 32.23 -0.6525 17.71 -0.3125 2.75 C-4.6025 2.75 -8.8925 2.75 -13.3125 2.75 C-13.29155273 3.9052417 -13.27060547 5.0604834 -13.24902344 6.25073242 C-13.17649602 10.54634148 -13.13065407 14.84189665 -13.09277344 19.13793945 C-13.07268695 20.99545398 -13.04541222 22.85290551 -13.01074219 24.71020508 C-12.96209263 27.38378463 -12.93950191 30.05652656 -12.921875 32.73046875 C-12.90122986 33.55773972 -12.88058472 34.38501068 -12.85931396 35.23735046 C-12.85777872 39.20311387 -13.03609984 41.28145323 -15.09375 44.76953125 C-18.29350443 47.62565008 -21.46806591 47.52994708 -25.5625 47.5625 C-26.68011719 47.60020508 -26.68011719 47.60020508 -27.8203125 47.63867188 C-29.65047793 47.69733102 -31.48154453 47.7265808 -33.3125 47.75 C-26.3825 48.245 -26.3825 48.245 -19.3125 48.75 C-19.3125 49.08 -19.3125 49.41 -19.3125 49.75 C-21.70902528 49.83139142 -24.10275436 49.89067009 -26.5 49.9375 C-27.51030273 49.97520508 -27.51030273 49.97520508 -28.54101562 50.01367188 C-33.03292123 50.07940708 -35.72242321 49.45575641 -39.3125 46.75 C-41.85757124 44.20492876 -42.28934199 43.15140544 -42.5 39.5 C-42.4071875 38.13875 -42.4071875 38.13875 -42.3125 36.75 C-41.6525 38.07 -40.9925 39.39 -40.3125 40.75 C-39.9825 39.76 -39.6525 38.77 -39.3125 37.75 C-32.4375 38.625 -32.4375 38.625 -31.3125 39.75 C-26.02817313 40.26685851 -26.02817313 40.26685851 -21.21240234 38.54956055 C-19.11178135 36.90099144 -19.11178135 36.90099144 -18.81420898 34.39672852 C-18.81235596 33.48334717 -18.81050293 32.56996582 -18.80859375 31.62890625 C-18.7921582 30.61586426 -18.77572266 29.60282227 -18.75878906 28.55908203 C-18.75588867 27.48770996 -18.75298828 26.41633789 -18.75 25.3125 C-18.31009139 6.09077903 -18.31009139 6.09077903 -15.3125 0.75 C-10.16055506 -1.98145531 -5.43549514 -2.05113024 0 0 Z " fill="#151F51" transform="translate(284.3125,80.25)"/>
<path d="M0 0 C3.52823731 0.35880379 6.39459959 1.08996569 9.6875 2.375 C9.3575 3.035 9.0275 3.695 8.6875 4.375 C7.6975 4.045 6.7075 3.715 5.6875 3.375 C1.51726082 3.2205467 -2.25396318 3.39111229 -6.3125 4.375 C-4.54291057 1.04400813 -3.83909737 0.4346148 0 0 Z M-7.3125 4.375 C-6.01317205 6.97365591 -6.54609979 7.93406489 -7.23046875 10.7265625 C-8.74399703 17.77111841 -8.63693658 24.80137805 -8.61523438 31.98046875 C-8.76643218 39.73545277 -8.76643218 39.73545277 -11.6171875 43.07421875 C-16.06275306 45.21968735 -19.99208912 45.06677496 -24.60546875 43.69140625 C-26.53102214 42.9791219 -28.42542903 42.1837447 -30.3125 41.375 C-30.6425 42.695 -30.9725 44.015 -31.3125 45.375 C-31.6425 43.725 -31.9725 42.075 -32.3125 40.375 C-35.6125 40.375 -38.9125 40.375 -42.3125 40.375 C-40.70204188 49.87015106 -40.70204188 49.87015106 -35.3125 57.375 C-26.91829602 62.33895952 -17.50387382 62.78865922 -8.11328125 60.64453125 C-2.89870341 58.93882822 0.94876639 57.37616572 3.6875 52.375 C5.74674418 47.3275364 6.02411691 42.84177992 6.1015625 37.4765625 C6.12092865 36.64160248 6.1402948 35.80664246 6.1602478 34.94638062 C6.21969614 32.29768874 6.26628894 29.64895257 6.3125 27 C6.35071182 25.19659636 6.38976539 23.39321034 6.4296875 21.58984375 C6.52536881 17.18504016 6.60952711 12.7801512 6.6875 8.375 C3.7175 8.375 0.7475 8.375 -2.3125 8.375 C-2.29155273 9.49994873 -2.27060547 10.62489746 -2.24902344 11.78393555 C-2.17648477 15.96772474 -2.1306501 20.15145861 -2.09277344 24.33569336 C-2.07268947 26.1447078 -2.04541659 27.95365757 -2.01074219 29.76245117 C-1.96208108 32.36653621 -1.93949949 34.96976115 -1.921875 37.57421875 C-1.90122986 38.37961594 -1.88058472 39.18501312 -1.85931396 40.01481628 C-1.85772873 44.0046673 -2.01599514 45.90863368 -4.21191406 49.36254883 C-7.96585921 52.95898884 -11.35875273 52.5581698 -16.3125 52.5625 C-17.04984375 52.57474609 -17.7871875 52.58699219 -18.546875 52.59960938 C-20.47020058 52.60487395 -22.39304263 52.49703447 -24.3125 52.375 C-24.9725 51.715 -25.6325 51.055 -26.3125 50.375 C-25.04792969 50.34921875 -23.78335938 50.3234375 -22.48046875 50.296875 C-20.82027782 50.24059734 -19.1601229 50.18324993 -17.5 50.125 C-16.24993164 50.10373047 -16.24993164 50.10373047 -14.97460938 50.08203125 C-14.17216797 50.04980469 -13.36972656 50.01757812 -12.54296875 49.984375 C-11.80457764 49.96342773 -11.06618652 49.94248047 -10.30541992 49.92089844 C-8.20800132 49.49839658 -8.20800132 49.49839658 -6.58007812 47.89453125 C-4.68844742 44.13458732 -4.8326893 40.6098718 -4.80078125 36.453125 C-4.78283005 35.59313904 -4.76487885 34.73315308 -4.74638367 33.84710693 C-4.69229962 31.10645416 -4.65839137 28.36597535 -4.625 25.625 C-4.59182521 23.76429872 -4.5573354 21.90362039 -4.52148438 20.04296875 C-4.43657431 15.48710472 -4.36975416 10.93129212 -4.3125 6.375 C-0.0225 6.375 4.2675 6.375 8.6875 6.375 C8.737123 12.08584339 8.77332503 17.79655985 8.79736328 23.50756836 C8.8073898 25.44834582 8.82101443 27.3891083 8.83837891 29.32983398 C8.86277489 32.12747916 8.87401681 34.92492371 8.8828125 37.72265625 C8.89313507 38.5833522 8.90345764 39.44404816 8.91409302 40.33082581 C8.91516068 46.12862632 8.77330184 51.78572876 4.98828125 56.484375 C4.33214844 57.02578125 3.67601562 57.5671875 3 58.125 C2.03513672 58.95257813 2.03513672 58.95257813 1.05078125 59.796875 C-5.13997018 63.93086438 -10.30878508 64.93264246 -17.625 64.875 C-18.46442139 64.86927979 -19.30384277 64.86355957 -20.16870117 64.85766602 C-28.75184662 64.61057925 -34.79175877 62.29775695 -40.8125 56.0625 C-45.39002215 50.08844567 -45.57227207 43.64861804 -45.3125 36.375 C-43.9925 36.045 -42.6725 35.715 -41.3125 35.375 C-40.9825 34.055 -40.6525 32.735 -40.3125 31.375 C-33.96363652 31.63413728 -30.6436386 33.76245974 -26.3125 38.375 C-25.9825 39.035 -25.6525 39.695 -25.3125 40.375 C-23.07066792 41.14294377 -23.07066792 41.14294377 -20.4375 41.625 C-19.11105469 41.91117188 -19.11105469 41.91117188 -17.7578125 42.203125 C-15.05299414 42.64376057 -15.05299414 42.64376057 -12.3125 40.375 C-10.76463689 34.8871217 -11.2375033 29.02975101 -11.3125 23.375 C-11.48292837 10.5247006 -11.48292837 10.5247006 -10.3125 6.375 C-9.3225 5.715 -8.3325 5.055 -7.3125 4.375 Z " fill="#241244" transform="translate(275.3125,76.625)"/>
<path d="M0 0 C0.66 0.66 1.32 1.32 2 2 C-0.88211302 2.96070434 -2.69850044 3.10581883 -5.6875 3.0625 C-6.89986328 3.04896484 -6.89986328 3.04896484 -8.13671875 3.03515625 C-9.05904297 3.01775391 -9.05904297 3.01775391 -10 3 C-9.63592545 3.58346695 -9.27185089 4.1669339 -8.89674377 4.76808167 C-8 7 -8 7 -8.55430603 8.83726501 C-8.91657791 9.45549637 -9.27884979 10.07372772 -9.65209961 10.71069336 C-11.96738323 14.91025504 -13.78876239 19.17910548 -15.56640625 23.62890625 C-15.88657211 24.42223862 -16.20673798 25.21557098 -16.53660583 26.03294373 C-17.54835444 28.54155379 -18.55561458 31.05193456 -19.5625 33.5625 C-20.57385185 36.07626611 -21.58614764 38.58964872 -22.59910583 41.10276794 C-23.22577477 42.65835373 -23.85138185 44.21436788 -24.47572327 45.77088928 C-26.25897532 50.20717862 -28.10035464 54.61223415 -30 59 C-26.7 59 -23.4 59 -20 59 C-19.01 56.03 -18.02 53.06 -17 50 C-7.76 50 1.48 50 11 50 C11.495 51.98 11.495 51.98 12 54 C11.67 54.33 11.34 54.66 11 55 C10.95936168 56.66617115 10.957279 58.33388095 11 60 C10.01 60 9.02 60 8 60 C7.34 59.01 6.68 58.02 6 57 C2.81927936 56.51859258 2.81927936 56.51859258 -0.8125 56.625 C-2.03582031 56.61726563 -3.25914062 56.60953125 -4.51953125 56.6015625 C-8.22086726 57.02528447 -10.00333309 57.86248111 -13 60 C-17.84321747 63.18969609 -20.96484372 64.58030349 -27 64 C-27.99 63.67 -28.98 63.34 -30 63 C-30 62.34 -30 61.68 -30 61 C-30.99 61 -31.98 61 -33 61 C-33.2057974 55.21480651 -33.1804258 50.4510645 -31 45 C-30.67 43.7625 -30.34 42.525 -30 41.25 C-29 38 -29 38 -27 36 C-26.27419775 34.05353032 -25.55148289 32.10575644 -24.85546875 30.1484375 C-24.03769009 28.09465547 -23.08473155 26.32254218 -21.9375 24.4375 C-19.93114077 20.8778304 -18.96371249 17.93515932 -18 14 C-17.34 14 -16.68 14 -16 14 C-15.896875 13.13375 -15.79375 12.2675 -15.6875 11.375 C-14.93871137 7.69912856 -14.06739798 5.13674176 -12 2 C-8.00995979 0.04931368 -4.41100456 -0.40100041 0 0 Z " fill="#25154A" transform="translate(322,80)"/>
<path d="M0 0 C1.32 1.65 2.64 3.3 4 5 C4.33 4.67 4.66 4.34 5 4 C5.99 3.67 6.98 3.34 8 3 C8.639375 3.9075 9.27875 4.815 9.9375 5.75 C14.55847002 11.09260096 19.47636044 12.89996844 26.45703125 13.41796875 C35.69300031 13.812786 43.2159046 13.48460215 51 8 C51.63550781 7.59652344 52.27101563 7.19304687 52.92578125 6.77734375 C54.30927453 5.88999978 55.6601665 4.95198696 57 4 C57 12 57 12 55.25 14.125 C48.37535151 19.85387374 39.97317877 20.31715508 31.375 20.1875 C30.55515625 20.18685547 29.7353125 20.18621094 28.890625 20.18554688 C24.51237441 20.15387143 20.27752082 20.03616964 16 19 C14.375 17.0625 14.375 17.0625 13 15 C12.38125 14.690625 11.7625 14.38125 11.125 14.0625 C8.17355317 12.58677659 6.29362267 10.35096324 4 8 C2.67940483 6.98323741 1.34826395 5.97977656 0 5 C-0.43570313 5.60328125 -0.87140625 6.2065625 -1.3203125 6.828125 C-6.36415432 13.59691705 -10.75860238 18.02699639 -19.24609375 19.62109375 C-28.48003357 20.89157909 -36.99060446 21.6870127 -46 19 C-46 18.01 -46 17.02 -46 16 C-45.35039307 16.01047363 -44.70078613 16.02094727 -44.03149414 16.03173828 C-41.04186999 16.07372962 -38.05230821 16.09946167 -35.0625 16.125 C-34.04091797 16.14175781 -33.01933594 16.15851563 -31.96679688 16.17578125 C-25.64311648 16.21618815 -20.11683473 15.62010013 -14 14 C-14 13.34 -14 12.68 -14 12 C-13.278125 11.814375 -12.55625 11.62875 -11.8125 11.4375 C-8.41556059 9.70128652 -7.25726694 7.8077156 -5.203125 4.6875 C-3.75028621 2.64975208 -2.11052244 1.32884746 0 0 Z " fill="#16265F" transform="translate(226,127)"/>
<path d="M0 0 C0.33 0 0.66 0 1 0 C1.495 2.97 1.495 2.97 2 6 C2.66 4.68 3.32 3.36 4 2 C5.20516286 6.89154337 5.33461434 11.80275122 5.5625 16.8125 C5.60568359 17.69615234 5.64886719 18.57980469 5.69335938 19.49023438 C5.79891536 21.65999623 5.89991071 23.8299791 6 26 C6.33 25.34 6.66 24.68 7 24 C7.66 24 8.32 24 9 24 C9.72837468 27.60041755 10.42921767 31.20565421 11.125 34.8125 C11.33253906 35.83666016 11.54007812 36.86082031 11.75390625 37.91601562 C11.94082031 38.89892578 12.12773437 39.88183594 12.3203125 40.89453125 C12.58739014 42.25348511 12.58739014 42.25348511 12.85986328 43.63989258 C13 46 13 46 11 49 C9.35 47.02 7.7 45.04 6 43 C3.44476556 45.4842557 1.0997061 47.86290411 -1 50.75 C-3.31243196 53.35148596 -4.59332791 53.71611066 -8 54 C-8 54.66 -8 55.32 -8 56 C-17.12974873 59.84410473 -27.42960702 60.73255398 -37 57.75 C-38.34526314 57.19473191 -39.68001745 56.61294505 -41 56 C-42.216875 55.505 -43.43375 55.01 -44.6875 54.5 C-49.58523798 51.53618192 -51.97050224 46.16467172 -54 41 C-54.42185541 38.41558055 -54.34889887 36.61674153 -54 34 C-53.01 33.505 -53.01 33.505 -52 33 C-51.82984375 33.65226562 -51.6596875 34.30453125 -51.484375 34.9765625 C-49.15567534 43.37474531 -46.5159358 48.50398434 -38.90234375 53.01953125 C-31.39510663 56.88876435 -19.50220174 56.3837042 -11.59375 53.953125 C-8.25390953 52.28320476 -5.64063792 50.64063792 -3 48 C-3.66 47.34 -4.32 46.68 -5 46 C-4.525625 45.4225 -4.05125 44.845 -3.5625 44.25 C-0.40748023 39.70677153 -0.79423969 34.6632196 -0.68359375 29.296875 C-0.66281265 28.45908508 -0.64203156 27.62129517 -0.62062073 26.75811768 C-0.5553745 24.08882644 -0.49635642 21.41943902 -0.4375 18.75 C-0.39429106 16.93749016 -0.35067601 15.12498995 -0.30664062 13.3125 C-0.19971871 8.87509791 -0.09838134 4.43759932 0 0 Z " fill="#162760" transform="translate(220,85)"/>
<path d="M0 0 C0.33 0 0.66 0 1 0 C1 2.31 1 4.62 1 7 C1.99 7 2.98 7 4 7 C5.60355101 10.50776784 6.22036864 13.14354879 6 17 C6.66 17 7.32 17 8 17 C8.28875 17.7425 8.5775 18.485 8.875 19.25 C9.8653571 21.9200384 9.8653571 21.9200384 11.1875 23.8125 C12.51246584 27.37971573 12.36107291 30.51725461 11 34 C7.56274804 37.95450833 4.32897514 39.84995442 -0.875 40.4375 C-4 40 -4 40 -6 39 C-6 38.34 -6 37.68 -6 37 C-7.65 36.67 -9.3 36.34 -11 36 C-11 35.34 -11 34.68 -11 34 C-12.010625 34.020625 -13.02125 34.04125 -14.0625 34.0625 C-18 34 -18 34 -21.6875 33.4375 C-25.49982642 32.88612956 -25.49982642 32.88612956 -29 34 C-29.804375 34.825 -30.60875 35.65 -31.4375 36.5 C-36.34851606 40.9034175 -43.76700612 40 -50 40 C-50 39.34 -50 38.68 -50 38 C-49.3709375 37.91363281 -48.741875 37.82726562 -48.09375 37.73828125 C-42.52294438 36.82379659 -38.42696702 35.45541529 -33.7890625 32.21875 C-29.28861079 29.1529401 -26.27241284 28.7727331 -20.75 28.875 C-19.48671875 28.89304688 -18.2234375 28.91109375 -16.921875 28.9296875 C-15.95765625 28.95289063 -14.9934375 28.97609375 -14 29 C-13.34 30.32 -12.68 31.64 -12 33 C-11.01 33 -10.02 33 -9 33 C-9.495 29.535 -9.495 29.535 -10 26 C-9.01 26.33 -8.02 26.66 -7 27 C-6.505 29.475 -6.505 29.475 -6 32 C-2.7 32 0.6 32 4 32 C3.72736328 31.34926514 3.45472656 30.69853027 3.17382812 30.02807617 C1.94373441 27.08347363 0.72178441 24.13555938 -0.5 21.1875 C-0.92925781 20.16333984 -1.35851562 19.13917969 -1.80078125 18.08398438 C-2.20683594 17.10107422 -2.61289062 16.11816406 -3.03125 15.10546875 C-3.59682617 13.74651489 -3.59682617 13.74651489 -4.17382812 12.36010742 C-5 10 -5 10 -5 7 C-4.34 7 -3.68 7 -3 7 C-2.60167969 8.00160156 -2.20335937 9.00320312 -1.79296875 10.03515625 C-1.25785964 11.37762296 -0.72270072 12.72006981 -0.1875 14.0625 C0.07353516 14.71927734 0.33457031 15.37605469 0.60351562 16.05273438 C2.33741213 20.39817871 4.1408365 24.70661643 6 29 C6.33 26.69 6.66 24.38 7 22 C6.34 22 5.68 22 5 22 C4.81824219 21.35933594 4.63648438 20.71867187 4.44921875 20.05859375 C3.26150502 15.97164036 2.09484153 12.03021138 0.25 8.1875 C-1.0717384 4.81706709 -1.12656256 3.37968769 0 0 Z " fill="#131A45" transform="translate(342,107)"/>
<path d="M0 0 C0 0.66 0 1.32 0 2 C0.556875 2.268125 1.11375 2.53625 1.6875 2.8125 C2.450625 3.204375 3.21375 3.59625 4 4 C4.886875 4.45375 5.77375 4.9075 6.6875 5.375 C9 7 9 7 9.8125 9.1875 C9.874375 9.785625 9.93625 10.38375 10 11 C9.34 10.67 8.68 10.34 8 10 C8 9.34 8 8.68 8 8 C3.126739 6.4087311 -0.80790596 5.78807779 -6 6 C-6 6.33 -6 6.66 -6 7 C-2.7 7.33 0.6 7.66 4 8 C4 8.33 4 8.66 4 9 C0.37 9 -3.26 9 -7 9 C-6.67603173 15.91132299 -5.49616405 20.62993365 -1 26 C6.39684768 31.68988283 15.06137228 31.66063766 24 31 C29.16210502 29.93699953 32.83710363 28.20222798 37 25 C37.99 25.33 38.98 25.66 40 26 C32.99520775 32.32139789 27.07217872 34.57301067 17.6875 34.5 C16.42945557 34.49250732 16.42945557 34.49250732 15.14599609 34.48486328 C6.76562372 34.24913991 1.3230266 32.03406776 -4.875 26.375 C-7.7322043 21.83708729 -9.37829403 17.09161316 -11 12 C-11.94056103 19.05420771 -9.12208019 24.34890525 -5 30 C-2.68480002 31.88543232 -0.78154479 32.83175119 2 34 C-1.75 35.125 -1.75 35.125 -4 34 C-4 33.34 -4 32.68 -4 32 C-4.58265625 31.80664062 -5.1653125 31.61328125 -5.765625 31.4140625 C-8.91220408 29.42269602 -10.13829761 26.61223913 -11.75 23.375 C-12.06582031 22.76398438 -12.38164062 22.15296875 -12.70703125 21.5234375 C-13.48175518 20.02094261 -14.24229671 18.51114982 -15 17 C-15.33 17 -15.66 17 -16 17 C-15.67 14.69 -15.34 12.38 -15 10 C-14.34 10 -13.68 10 -13 10 C-13.33 9.01 -13.66 8.02 -14 7 C-11.10992528 2.66488792 -5.31686893 0 0 0 Z " fill="#14143C" transform="translate(178,107)"/>
<path d="M0 0 C2.3807949 3.57119234 2.32257477 6.17287588 2.3359375 10.30078125 C2.3425943 11.01477585 2.3492511 11.72877045 2.35610962 12.46440125 C2.36622817 13.97485787 2.37092688 15.48535913 2.37060547 16.99584961 C2.37496532 19.29421828 2.41125113 21.59064466 2.44921875 23.88867188 C2.45509003 25.35936847 2.45905734 26.83007414 2.4609375 28.30078125 C2.47530853 28.98223709 2.48967957 29.66369293 2.50448608 30.36579895 C2.45750648 35.33268137 1.23183702 38.25042768 -2 42 C-5.00749566 42.62203223 -7.24960366 42.88560211 -10.25 42.875 C-10.99507812 42.895625 -11.74015625 42.91625 -12.5078125 42.9375 C-14.33805864 42.98442939 -16.16915725 42.99574223 -18 43 C-13.71 43.33 -9.42 43.66 -5 44 C-5 44.33 -5 44.66 -5 45 C-7.22855574 45.0814222 -9.45797655 45.13938079 -11.6875 45.1875 C-13.54955078 45.23970703 -13.54955078 45.23970703 -15.44921875 45.29296875 C-19.22251722 44.98164049 -21.00784727 44.25233474 -24 42 C-25.4375 40.125 -25.4375 40.125 -26 38 C-25.125 35.25 -25.125 35.25 -24 33 C-23.34 33 -22.68 33 -22 33 C-21.2884375 33.9590625 -21.2884375 33.9590625 -20.5625 34.9375 C-19.0908635 37.28372963 -19.0908635 37.28372963 -16 38 C-13.8517381 38.30723267 -13.8517381 38.30723267 -11.5625 38.375 C-10.80066406 38.42398438 -10.03882813 38.47296875 -9.25390625 38.5234375 C-5.8352146 37.72949524 -4.89783342 35.87722611 -3 33 C-2.39628913 29.90293642 -2.39628913 29.90293642 -2.4609375 26.5625 C-2.43773437 25.33789062 -2.41453125 24.11328125 -2.390625 22.8515625 C-2.38546875 21.58054687 -2.3803125 20.30953125 -2.375 19 C-2.34943275 16.479069 -2.31589145 13.95820317 -2.2734375 11.4375 C-2.26747559 10.32246094 -2.26151367 9.20742187 -2.25537109 8.05859375 C-1.99871668 4.98462966 -1.3017443 2.77808918 0 0 Z " fill="#172C6A" transform="translate(207,85)"/>
<path d="M0 0 C3 2.0625 3 2.0625 5 5 C5.43846654 7.94649516 5.13745736 10.24827234 4 13 C0.99628259 15.79415573 -1.0249034 16.84080056 -5.0625 17.5 C-8.89397888 16.84783338 -10.43433498 15.9321886 -13 13 C-13.9788464 10.27402659 -14.30316778 7.88295402 -14 5 C-10.35748411 -1.1142231 -6.6983221 -1.61683637 0 0 Z " fill="#A87BD8" transform="translate(495,38)"/>
<path d="M0 0 C3.5060303 0.86943897 4.94966563 2.56083702 6.9375 5.48046875 C7.62901325 9.78321784 7.45307405 11.68992187 5.0625 15.35546875 C2.32447534 18.09349341 1.4577789 18.42265998 -2.4375 18.85546875 C-6.0625 18.48046875 -6.0625 18.48046875 -8.4375 16.10546875 C-10.83994694 12.22459292 -11.60667833 10.10598452 -11.0625 5.48046875 C-7.96739703 1.03125823 -5.27006603 -0.36930387 0 0 Z " fill="#B081E2" transform="translate(405.0625,157.51953125)"/>
<path d="M0 0 C4.78928081 0.92424717 6.3477954 2.00235082 9.5625 5.6875 C10.33402986 10.00806721 10.08997866 11.87869939 7.6875 15.5625 C4.94947534 18.30052466 4.0827789 18.62969123 0.1875 19.0625 C-3.4375 18.6875 -3.4375 18.6875 -5.8125 16.625 C-7.78429627 13.06059904 -8.50925526 10.7775497 -8.4375 6.6875 C-6.03918128 2.56538969 -4.72718867 0.94543773 0 0 Z " fill="#AD7FDE" transform="translate(281.4375,36.3125)"/>
<path d="M0 0 C2.63683762 2.1094701 3.7081633 3.62141901 4.41015625 6.9375 C4.70368257 10.91139476 4.24338863 12.64598017 1.9375 16 C-1.76272533 18.51930235 -3.6031656 18.7066341 -8 18 C-10.9375 16.5625 -10.9375 16.5625 -13 14 C-13.72278064 10.85032177 -13.6847852 8.15450229 -13 5 C-9.41177492 -0.49446965 -6.1206792 -0.97153638 0 0 Z " fill="#B283E4" transform="translate(118,158)"/>
<path d="M0 0 C3.35248129 2.09530081 3.87657364 3.60793979 5.0625 7.375 C4.99688658 11.18057831 4.39610337 13.11298892 1.73046875 15.890625 C-1.09787503 17.70382959 -3.61290358 17.75871973 -6.90625 17.51171875 C-9 17 -9 17 -11.5625 15 C-13.54877707 10.85472611 -13.58199542 8.58321396 -13 4 C-10.08830413 -1.0638189 -5.28354967 -0.94210353 0 0 Z " fill="#AD7FDE" transform="translate(115,38)"/>
<path d="M0 0 C0.598125 0.33 1.19625 0.66 1.8125 1 C4.05386471 2.20787988 4.05386471 2.20787988 7 2 C7 3.98 7 5.96 7 8 C7.99 8 8.98 8 10 8 C10 9.65 10 11.3 10 13 C10.66 13 11.32 13 12 13 C12 14.65 12 16.3 12 18 C12.66 18 13.32 18 14 18 C14.14695312 19.23363281 14.14695312 19.23363281 14.296875 20.4921875 C15.18014753 27.08627376 16.39930539 32.82769378 19.1953125 38.87890625 C20 41 20 41 20 45 C20.66 45 21.32 45 22 45 C22 47.64 22 50.28 22 53 C18.23156396 49.77794701 16.889261 46.72314687 15.3125 42.0625 C14.89613281 40.85722656 14.47976563 39.65195313 14.05078125 38.41015625 C13.18545181 35.60185661 12.4992564 32.89129804 12 30 C11.01 30.33 10.02 30.66 9 31 C9 30.01 9 29.02 9 28 C8.45401174 24.58367347 7.55205509 21.65407497 6.15234375 18.49609375 C5.79462891 17.67302734 5.43691406 16.84996094 5.06835938 16.00195312 C4.31237463 14.2876043 3.55455125 12.57406513 2.79492188 10.86132812 C2.43849609 10.03955078 2.08207031 9.21777344 1.71484375 8.37109375 C1.38605225 7.62786865 1.05726074 6.88464355 0.71850586 6.11889648 C0 4 0 4 0 0 Z " fill="#1A2A67" transform="translate(327,84)"/>
<path d="M0 0 C0.66 0 1.32 0 2 0 C3.3417678 3.26743656 4.67194359 6.53946908 6 9.8125 C6.3815625 10.74126953 6.763125 11.67003906 7.15625 12.62695312 C7.5171875 13.51962891 7.878125 14.41230469 8.25 15.33203125 C8.58515625 16.15421143 8.9203125 16.9763916 9.265625 17.82348633 C10 20 10 20 10 23 C3.73 23 -2.54 23 -9 23 C-7.08659036 17.25977108 -5.21389186 11.93401914 -2.8125 6.4375 C-2.40354492 5.49680664 -2.40354492 5.49680664 -1.98632812 4.53710938 C-1.32762687 3.0232521 -0.66432675 1.5113971 0 0 Z " fill="#351F58" transform="translate(318,98)"/>
<path d="M0 0 C3.52823731 0.35880379 6.39459959 1.08996569 9.6875 2.375 C9.3575 3.035 9.0275 3.695 8.6875 4.375 C7.6975 4.045 6.7075 3.715 5.6875 3.375 C1.51726082 3.2205467 -2.25396318 3.39111229 -6.3125 4.375 C-4.54291057 1.04400813 -3.83909737 0.4346148 0 0 Z M-7.3125 4.375 C-6.01317205 6.97365591 -6.54609979 7.93406489 -7.23046875 10.7265625 C-8.74399703 17.77111841 -8.63693658 24.80137805 -8.61523438 31.98046875 C-8.76643218 39.73545277 -8.76643218 39.73545277 -11.6171875 43.07421875 C-16.06275306 45.21968735 -19.99208912 45.06677496 -24.60546875 43.69140625 C-26.53102214 42.9791219 -28.42542903 42.1837447 -30.3125 41.375 C-30.6425 42.695 -30.9725 44.015 -31.3125 45.375 C-31.3125 43.065 -31.3125 40.755 -31.3125 38.375 C-35.6025 38.375 -39.8925 38.375 -44.3125 38.375 C-44.3125 40.355 -44.3125 42.335 -44.3125 44.375 C-44.6425 44.375 -44.9725 44.375 -45.3125 44.375 C-45.3125 41.735 -45.3125 39.095 -45.3125 36.375 C-43.9925 36.045 -42.6725 35.715 -41.3125 35.375 C-40.9825 34.055 -40.6525 32.735 -40.3125 31.375 C-33.96363652 31.63413728 -30.6436386 33.76245974 -26.3125 38.375 C-25.9825 39.035 -25.6525 39.695 -25.3125 40.375 C-23.07066792 41.14294377 -23.07066792 41.14294377 -20.4375 41.625 C-19.11105469 41.91117188 -19.11105469 41.91117188 -17.7578125 42.203125 C-15.05299414 42.64376057 -15.05299414 42.64376057 -12.3125 40.375 C-10.76463689 34.8871217 -11.2375033 29.02975101 -11.3125 23.375 C-11.48292837 10.5247006 -11.48292837 10.5247006 -10.3125 6.375 C-9.3225 5.715 -8.3325 5.055 -7.3125 4.375 Z " fill="#12153B" transform="translate(275.3125,76.625)"/>
<path d="M0 0 C0.33 0 0.66 0 1 0 C2.20516286 4.89154337 2.33461434 9.80275122 2.5625 14.8125 C2.60568359 15.69615234 2.64886719 16.57980469 2.69335938 17.49023438 C2.79891536 19.65999623 2.89991071 21.8299791 3 24 C3.33 23.34 3.66 22.68 4 22 C4.66 22 5.32 22 6 22 C6.72837468 25.60041755 7.42921767 29.20565421 8.125 32.8125 C8.33253906 33.83666016 8.54007813 34.86082031 8.75390625 35.91601562 C9.03427734 37.39038086 9.03427734 37.39038086 9.3203125 38.89453125 C9.49836426 39.80050049 9.67641602 40.70646973 9.85986328 41.63989258 C10 44 10 44 8 47 C4 42.5 4 42.5 4 38 C1.03 40.475 1.03 40.475 -2 43 C-2.33 42.34 -2.66 41.68 -3 41 C-2.67 40.01 -2.34 39.02 -2 38 C-1.85857436 35.46326863 -1.76690336 32.94872805 -1.71875 30.41015625 C-1.70034058 29.66922226 -1.68193115 28.92828827 -1.66296387 28.16490173 C-1.60427411 25.79751435 -1.55144246 23.43005528 -1.5 21.0625 C-1.43219968 17.94907124 -1.35850174 14.83586321 -1.28125 11.72265625 C-1.26767456 11.00900406 -1.25409912 10.29535187 -1.2401123 9.56007385 C-1.15748935 6.24517634 -1.00906111 3.17374229 0 0 Z " fill="#172966" transform="translate(223,87)"/>
<path d="M0 0 C0.53625 0.7425 1.0725 1.485 1.625 2.25 C3.89140713 5.13023797 3.89140713 5.13023797 7.0625 7 C10.11943648 9.08131845 11.36637849 10.73275699 13 14 C8.72655357 13.52517262 6.86471775 11.00795363 4 8 C2.6805611 6.98173737 1.34962245 5.9779044 0 5 C-0.43570313 5.60328125 -0.87140625 6.2065625 -1.3203125 6.828125 C-6.36415432 13.59691705 -10.75860238 18.02699639 -19.24609375 19.62109375 C-28.48003357 20.89157909 -36.99060446 21.6870127 -46 19 C-46 18.01 -46 17.02 -46 16 C-45.35039307 16.01047363 -44.70078613 16.02094727 -44.03149414 16.03173828 C-41.04186999 16.07372962 -38.05230821 16.09946167 -35.0625 16.125 C-34.04091797 16.14175781 -33.01933594 16.15851563 -31.96679688 16.17578125 C-25.64311648 16.21618815 -20.11683473 15.62010013 -14 14 C-14 13.34 -14 12.68 -14 12 C-13.278125 11.814375 -12.55625 11.62875 -11.8125 11.4375 C-8.41556059 9.70128652 -7.25726694 7.8077156 -5.203125 4.6875 C-3.75028621 2.64975208 -2.11052244 1.32884746 0 0 Z " fill="#131C4A" transform="translate(226,127)"/>
<path d="M0 0 C0.66 0.66 1.32 1.32 2 2 C-0.88211302 2.96070434 -2.69850044 3.10581883 -5.6875 3.0625 C-6.89986328 3.04896484 -6.89986328 3.04896484 -8.13671875 3.03515625 C-9.05904297 3.01775391 -9.05904297 3.01775391 -10 3 C-9.34 4.32 -8.68 5.64 -8 7 C-8.99 7.495 -8.99 7.495 -10 8 C-10.66 7.67 -11.32 7.34 -12 7 C-12.14622803 7.97960693 -12.14622803 7.97960693 -12.29541016 8.97900391 C-13.22141836 12.94935232 -14.72393579 16.57225046 -16.2734375 20.3359375 C-16.59784821 21.13351471 -16.92225891 21.93109192 -17.25650024 22.75283813 C-18.29187128 25.29526545 -19.33341508 27.83511301 -20.375 30.375 C-21.06809968 32.07536137 -21.76081204 33.77588066 -22.453125 35.4765625 C-25.25155853 42.34026364 -28.06222801 49.19455417 -31 56 C-31.66 56 -32.32 56 -33 56 C-32.20603868 43.69359948 -26.53776813 33.66010678 -20.890625 22.8828125 C-19.5427821 20.03342533 -18.81744058 17.03620787 -18 14 C-17.34 14 -16.68 14 -16 14 C-15.896875 13.13375 -15.79375 12.2675 -15.6875 11.375 C-14.93871137 7.69912856 -14.06739798 5.13674176 -12 2 C-8.00995979 0.04931368 -4.41100456 -0.40100041 0 0 Z " fill="#172B68" transform="translate(322,80)"/>
<path d="M0 0 C4.29 0 8.58 0 13 0 C12.67 13.2 12.34 26.4 12 40 C11.67 40 11.34 40 11 40 C11 27.46 11 14.92 11 2 C8.03 2 5.06 2 2 2 C2.02094727 3.12494873 2.04189453 4.24989746 2.06347656 5.40893555 C2.13601523 9.59272474 2.1818499 13.77645861 2.21972656 17.96069336 C2.23981053 19.7697078 2.26708341 21.57865757 2.30175781 23.38745117 C2.35041892 25.99153621 2.37300051 28.59476115 2.390625 31.19921875 C2.41127014 32.00461594 2.43191528 32.81001312 2.45318604 33.63981628 C2.45477127 37.6296673 2.29650486 39.53363368 0.10058594 42.98754883 C-3.65335921 46.58398884 -7.04625273 46.1831698 -12 46.1875 C-12.73734375 46.19974609 -13.4746875 46.21199219 -14.234375 46.22460938 C-16.15770058 46.22987395 -18.08054263 46.12203447 -20 46 C-20.66 45.34 -21.32 44.68 -22 44 C-20.73542969 43.97421875 -19.47085938 43.9484375 -18.16796875 43.921875 C-16.50777782 43.86559734 -14.8476229 43.80824993 -13.1875 43.75 C-12.35412109 43.73582031 -11.52074219 43.72164062 -10.66210938 43.70703125 C-9.85966797 43.67480469 -9.05722656 43.64257812 -8.23046875 43.609375 C-7.49207764 43.58842773 -6.75368652 43.56748047 -5.99291992 43.54589844 C-3.89550132 43.12339658 -3.89550132 43.12339658 -2.26757812 41.51953125 C-0.37594742 37.75958732 -0.5201893 34.2348718 -0.48828125 30.078125 C-0.47033005 29.21813904 -0.45237885 28.35815308 -0.43388367 27.47210693 C-0.37979962 24.73145416 -0.34589137 21.99097535 -0.3125 19.25 C-0.27932521 17.38929872 -0.2448354 15.52862039 -0.20898438 13.66796875 C-0.12407431 9.11210472 -0.05725416 4.55629212 0 0 Z " fill="#321A50" transform="translate(271,83)"/>
<path d="M0 0 C1.82484977 5.80038372 0.90630702 12.07078455 0.6875 18.0625 C0.65205078 19.35478516 0.61660156 20.64707031 0.58007812 21.97851562 C0.51530273 23.83186523 0.51530273 23.83186523 0.44921875 25.72265625 C0.41143311 26.85453369 0.37364746 27.98641113 0.3347168 29.15258789 C0 32 0 32 -2 35 C-2.66 35 -3.32 35 -4 35 C-4.33 35.99 -4.66 36.98 -5 38 C-14.76374745 38.57433809 -14.76374745 38.57433809 -19 35 C-19.495 33.515 -19.495 33.515 -20 32 C-20.99 32.495 -20.99 32.495 -22 33 C-22.65213292 35.02463255 -22.65213292 35.02463255 -23 37 C-23.66 37 -24.32 37 -25 37 C-25 35.02 -25 33.04 -25 31 C-27.97 31 -30.94 31 -34 31 C-34 28 -34 28 -33 26 C-27.55141727 25.6664133 -23.77668668 26.28384483 -19 29 C-17.80078125 31.61328125 -17.80078125 31.61328125 -17 34 C-15.22992286 34.08114106 -13.45877902 34.13925505 -11.6875 34.1875 C-10.70136719 34.22230469 -9.71523437 34.25710937 -8.69921875 34.29296875 C-6.00679859 34.22098904 -6.00679859 34.22098904 -4.20703125 32.73828125 C-1.76784764 29.22554111 -1.84335869 25.38068895 -1.71875 21.2109375 C-1.68136719 20.10492188 -1.64398438 18.99890625 -1.60546875 17.859375 C-1.53491999 15.52865297 -1.46460907 13.19792373 -1.39453125 10.8671875 C-1.35714844 9.76375 -1.31976563 8.6603125 -1.28125 7.5234375 C-1.25095703 6.51200684 -1.22066406 5.50057617 -1.18945312 4.45849609 C-1 2 -1 2 0 0 Z " fill="#1E2055" transform="translate(205,86)"/>
<path d="M0 0 C1.43739513 -0.02712066 2.87493863 -0.04645067 4.3125 -0.0625 C5.51326172 -0.07990234 5.51326172 -0.07990234 6.73828125 -0.09765625 C9 0 9 0 12 1 C12.33 2.65 12.66 4.3 13 6 C13.99 6 14.98 6 16 6 C18.31320723 13.89211879 17.85602429 20.86776924 17 29 C16.34 29 15.68 29 15 29 C15 30.65 15 32.3 15 34 C12.94872156 30.92308234 12.72739128 30.06355001 12.5859375 26.55078125 C12.54726562 25.70322266 12.50859375 24.85566406 12.46875 23.98242188 C12.4378125 23.10134766 12.406875 22.22027344 12.375 21.3125 C12.33632812 20.41982422 12.29765625 19.52714844 12.2578125 18.60742188 C12.16359782 16.4051538 12.07798412 14.20289278 12 12 C11.34 11.67 10.68 11.34 10 11 C10 8.36 10 5.72 10 3 C6.37 3 2.74 3 -1 3 C-0.67 2.01 -0.34 1.02 0 0 Z " fill="#151F52" transform="translate(212,80)"/>
<path d="M0 0 C1.21458389 -0.00637985 2.42916779 -0.0127597 3.68055725 -0.01933289 C4.99309982 -0.02044571 6.3056424 -0.02155853 7.65795898 -0.02270508 C9.01651546 -0.02591812 10.37507158 -0.02928222 11.73362732 -0.03279114 C14.57909956 -0.03877616 17.42454144 -0.04063158 20.27001953 -0.04003906 C23.92092265 -0.03993723 27.5716322 -0.0536138 31.22248936 -0.07081127 C34.02683919 -0.08191128 36.83114184 -0.08395893 39.6355114 -0.08342934 C41.63752047 -0.08518713 43.63951482 -0.0960364 45.64149475 -0.10697937 C47.45864235 -0.10236443 47.45864235 -0.10236443 49.3125 -0.09765625 C50.91775291 -0.09979378 50.91775291 -0.09979378 52.55543518 -0.10197449 C55.09155273 0.14526367 55.09155273 0.14526367 57.09155273 2.14526367 C35.64155273 2.14526367 14.19155273 2.14526367 -7.90844727 2.14526367 C-9.74681645 5.82200205 -10.84496539 9.19518814 -11.90844727 13.14526367 C-12.23844727 13.14526367 -12.56844727 13.14526367 -12.90844727 13.14526367 C-13.2299567 9.04601844 -13.32229564 6.80171281 -11.09594727 3.27026367 C-7.6147446 -0.11147606 -4.65204742 0.01655766 0 0 Z " fill="#8964B2" transform="translate(397.908447265625,36.854736328125)"/>
<path d="M0 0 C9.24 0 18.48 0 28 0 C28.33 1.32 28.66 2.64 29 4 C28.67 4.33 28.34 4.66 28 5 C27.95936168 6.66617115 27.957279 8.33388095 28 10 C27.01 10 26.02 10 25 10 C24.34 9.01 23.68 8.02 23 7 C15.93838049 4.64612683 7.91485305 5.48550798 1 8 C0.957279 6.33388095 0.95936168 4.66617115 1 3 C1.33 2.67 1.66 2.34 2 2 C1.34 1.34 0.68 0.68 0 0 Z " fill="#282A68" transform="translate(305,130)"/>
<path d="M0 0 C0.66 0.33 1.32 0.66 2 1 C2 4 2 4 0.25 6.0625 C-6.53199896 11.90255466 -15.04971213 12.3168099 -23.625 12.1875 C-24.44484375 12.18685547 -25.2646875 12.18621094 -26.109375 12.18554688 C-30.4786247 12.15393655 -34.74465316 12.09010428 -39 11 C-40.875 8.4375 -40.875 8.4375 -42 6 C-37.25 6.875 -37.25 6.875 -35 8 C-31.63132776 8.26767682 -28.25311289 8.23164069 -24.875 8.25 C-23.48667969 8.2809375 -23.48667969 8.2809375 -22.0703125 8.3125 C-15.95329537 8.34705942 -11.62151625 7.37881534 -6 5 C-5.01 5 -4.02 5 -3 5 C-2.814375 4.0409375 -2.814375 4.0409375 -2.625 3.0625 C-2.41875 2.381875 -2.2125 1.70125 -2 1 C-1.34 0.67 -0.68 0.34 0 0 Z " fill="#121841" transform="translate(281,135)"/>
<path d="M0 0 C5.445 0.495 5.445 0.495 11 1 C11 1.33 11 1.66 11 2 C8.03 2 5.06 2 2 2 C2.02094727 3.12494873 2.04189453 4.24989746 2.06347656 5.40893555 C2.13601523 9.59272474 2.1818499 13.77645861 2.21972656 17.96069336 C2.23981053 19.7697078 2.26708341 21.57865757 2.30175781 23.38745117 C2.35041892 25.99153621 2.37300051 28.59476115 2.390625 31.19921875 C2.41127014 32.00461594 2.43191528 32.81001312 2.45318604 33.63981628 C2.45477127 37.6296673 2.29650486 39.53363368 0.10058594 42.98754883 C-3.64009548 46.57128162 -7.00050752 46.18315788 -11.9375 46.1875 C-12.66646484 46.19974609 -13.39542969 46.21199219 -14.14648438 46.22460938 C-17.9713391 46.23512685 -19.74356564 46.17095624 -23 44 C-22.44014404 43.99589111 -21.88028809 43.99178223 -21.3034668 43.98754883 C-18.7637413 43.95462695 -16.22642019 43.88399306 -13.6875 43.8125 C-12.80642578 43.80669922 -11.92535156 43.80089844 -11.01757812 43.79492188 C-10.17001953 43.76591797 -9.32246094 43.73691406 -8.44921875 43.70703125 C-7.66893311 43.6913208 -6.88864746 43.67561035 -6.0847168 43.65942383 C-3.81887722 43.14094305 -3.81887722 43.14094305 -2.25390625 41.00585938 C-0.58190024 36.99773281 -0.52242596 33.50287782 -0.48828125 29.19921875 C-0.47033005 28.36284378 -0.45237885 27.52646881 -0.43388367 26.66474915 C-0.37990491 24.00571666 -0.34592539 21.34686239 -0.3125 18.6875 C-0.27931589 16.87953256 -0.24482522 15.0715886 -0.20898438 13.26367188 C-0.12418576 8.84257676 -0.05731559 4.42153336 0 0 Z " fill="#341E55" transform="translate(209,83)"/>
<path d="M0 0 C0.33 0 0.66 0 1 0 C1.09796875 0.65226562 1.1959375 1.30453125 1.296875 1.9765625 C2.4212408 8.54828673 3.75260763 13.60718457 9.375 17.75 C18.08535118 21.89778628 27.85789718 22.60748265 37.125 19.6875 C40.15111035 18.51628322 42.42782331 16.97859746 45 15 C45.99 15.33 46.98 15.66 48 16 C40.99520775 22.32139789 35.07217872 24.57301067 25.6875 24.5 C24.84880371 24.49500488 24.01010742 24.49000977 23.14599609 24.48486328 C15.64643469 24.27391539 9.94725994 22.69229339 4.3671875 17.47265625 C1.5391913 14.29722051 -1.01968378 10.98150049 -0.9765625 6.640625 C-0.86054688 5.85171875 -0.74453125 5.0628125 -0.625 4.25 C-0.51414063 3.45078125 -0.40328125 2.6515625 -0.2890625 1.828125 C-0.19367188 1.22484375 -0.09828125 0.6215625 0 0 Z " fill="#241346" transform="translate(170,117)"/>
<path d="M0 0 C0.66 1.32 1.32 2.64 2 4 C2.33 3.01 2.66 2.02 3 1 C3.66 1 4.32 1 5 1 C5.309375 1.928125 5.309375 1.928125 5.625 2.875 C6.8821543 5.19901336 6.8821543 5.19901336 9.5 6.3125 C15.11083968 7.41462922 20.58592225 6.80469258 26 5 C27.20882096 2.99983534 27.20882096 2.99983534 28 1 C28.36022514 6.40337711 28.36022514 6.40337711 27 8.65625 C23.86581098 10.76203325 20.47339574 10.57559489 16.8125 10.6875 C16.06291016 10.72166016 15.31332031 10.75582031 14.54101562 10.79101562 C12.69453162 10.87334294 10.84729006 10.93835281 9 11 C15.93 11.495 15.93 11.495 23 12 C23 12.33 23 12.66 23 13 C20.60347472 13.08139142 18.20974564 13.14067009 15.8125 13.1875 C15.13896484 13.21263672 14.46542969 13.23777344 13.77148438 13.26367188 C9.27957877 13.32940708 6.59007679 12.70575641 3 10 C0.45492876 7.45492876 0.02315801 6.40140544 -0.1875 2.75 C-0.125625 1.8425 -0.06375 0.935 0 0 Z " fill="#193277" transform="translate(242,117)"/>
<path d="M0 0 C0.66 0.33 1.32 0.66 2 1 C2 11.89 2 22.78 2 34 C1.34 33.34 0.68 32.68 0 32 C-0.45375 32.639375 -0.9075 33.27875 -1.375 33.9375 C-5.28902249 37.01280339 -9.10693807 37.1951221 -14 37 C-16.86920519 36.3704262 -18.43690744 35.58148265 -21 34 C-21.9375 31.8125 -21.9375 31.8125 -22 30 C-19 31 -19 31 -17 34 C-14.21297658 34.51774776 -14.21297658 34.51774776 -11.0625 34.4375 C-9.47115234 34.46650391 -9.47115234 34.46650391 -7.84765625 34.49609375 C-4.95536359 34.27494735 -4.95536359 34.27494735 -3.35180664 32.34008789 C-1.66363148 29.41771857 -1.58738442 27.42725153 -1.5234375 24.0625 C-1.47703125 22.34933594 -1.47703125 22.34933594 -1.4296875 20.6015625 C-1.41164063 19.41304687 -1.39359375 18.22453125 -1.375 17 C-1.32393171 14.64575204 -1.26939086 12.29157617 -1.2109375 9.9375 C-1.18459229 8.37322266 -1.18459229 8.37322266 -1.15771484 6.77734375 C-1.02042964 4.3597641 -0.69053623 2.31056053 0 0 Z " fill="#172966" transform="translate(269,88)"/>
<path d="M0 0 C0.66 0 1.32 0 2 0 C2.81210938 1.47339844 2.81210938 1.47339844 3.640625 2.9765625 C5.7500647 6.38784401 5.7500647 6.38784401 9.671875 6.5859375 C11.0324902 6.54630793 12.39249197 6.47508093 13.75 6.375 C14.79607422 6.33439453 14.79607422 6.33439453 15.86328125 6.29296875 C17.57685705 6.22254783 19.28883302 6.11492913 21 6 C21.28875 5.195625 21.5775 4.39125 21.875 3.5625 C23 1 23 1 25 0 C24.25 6.75 24.25 6.75 22 9 C19.26565038 9.3063859 16.61720179 9.5113336 13.875 9.625 C12.74384766 9.68300781 12.74384766 9.68300781 11.58984375 9.7421875 C9.72696816 9.83651031 7.86351745 9.91934662 6 10 C10.29 10.33 14.58 10.66 19 11 C19 11.33 19 11.66 19 12 C16.77144426 12.0814222 14.54202345 12.13938079 12.3125 12.1875 C11.07113281 12.22230469 9.82976562 12.25710937 8.55078125 12.29296875 C4.77748278 11.98164049 2.99215273 11.25233474 0 9 C-1.4375 7.125 -1.4375 7.125 -2 5 C-1.125 2.25 -1.125 2.25 0 0 Z " fill="#193277" transform="translate(183,118)"/>
<path d="M0 0 C8.91 0 17.82 0 27 0 C27 0.33 27 0.66 27 1 C14.625 1.495 14.625 1.495 2 2 C2 3.32 2 4.64 2 6 C2.7425 5.67 3.485 5.34 4.25 5 C9.5121552 3.59675861 14.5857837 3.84230438 20 4 C20 4.33 20 4.66 20 5 C19.26394531 5.03738281 18.52789062 5.07476562 17.76953125 5.11328125 C10.4068771 5.5815667 10.4068771 5.5815667 4 9 C-0.79000658 12.24785812 -4.01924774 13.57507233 -10 13 C-10.99 12.67 -11.98 12.34 -13 12 C-13 11.34 -13 10.68 -13 10 C-9.04 10 -5.08 10 -1 10 C-1.66 8.68 -2.32 7.36 -3 6 C-2.01 4.02 -1.02 2.04 0 0 Z " fill="#211C52" transform="translate(305,131)"/>
<path d="M0 0 C0.66 0 1.32 0 2 0 C2.83986084 1.93467942 3.67168027 3.87285129 4.5 5.8125 C4.9640625 6.89144531 5.428125 7.97039062 5.90625 9.08203125 C7 12 7 12 7 15 C3.04 15 -0.92 15 -5 15 C-4.15522369 11.62089476 -3.14057406 8.50994262 -1.9375 5.25 C-1.57527344 4.26515625 -1.21304687 3.2803125 -0.83984375 2.265625 C-0.56269531 1.51796875 -0.28554688 0.7703125 0 0 Z " fill="#1D449C" transform="translate(318,104)"/>
<path d="M0 0 C0 3.41761705 -0.75938546 5.82954062 -2 9 C-2.99 9.495 -2.99 9.495 -4 10 C-4.50494339 11.85385908 -4.50494339 11.85385908 -4.8125 14.0625 C-5.68264589 18.4693679 -7.30274013 21.52939774 -9.87890625 25.17578125 C-11.06878996 27.11193349 -11.56414494 28.78154669 -12 31 C-12.66 30.67 -13.32 30.34 -14 30 C-12.96383049 18.60213534 -9.60300082 8.90546021 -1 1 C-0.67 0.67 -0.34 0.34 0 0 Z " fill="#12153E" transform="translate(308,85)"/>
<path d="M0 0 C5.62170399 0.22945731 8.39632556 1.65060682 12.6171875 5.33203125 C14.17329906 7.20903587 14.59708512 8.61866973 15 11 C12.525 10.505 12.525 10.505 10 10 C9.67 11.32 9.34 12.64 9 14 C9 11.69 9 9.38 9 7 C4.71 7 0.42 7 -4 7 C-4 8.98 -4 10.96 -4 13 C-4.33 13 -4.66 13 -5 13 C-5 10.36 -5 7.72 -5 5 C-3.68 4.67 -2.36 4.34 -1 4 C-0.67 2.68 -0.34 1.36 0 0 Z " fill="#151B4B" transform="translate(235,108)"/>
<path d="M0 0 C0.33 0 0.66 0 1 0 C1.16778266 5.62319204 1.32832479 11.24652675 1.48217773 16.87011719 C1.53552775 18.7829341 1.59085153 20.69569703 1.64819336 22.60839844 C1.73029975 25.35860556 1.80529246 28.10892907 1.87890625 30.859375 C1.90594131 31.71368103 1.93297638 32.56798706 1.96083069 33.44818115 C1.98092697 34.24870911 2.00102325 35.04923706 2.02172852 35.87402344 C2.04171402 36.57573669 2.06169952 37.27744995 2.08229065 38.00042725 C1.99503812 40.12056818 1.58261316 41.96449986 1 44 C1.66 44 2.32 44 3 44 C3.66 42.68 4.32 41.36 5 40 C5.66 40 6.32 40 7 40 C5.43638038 43.83797544 2.97489917 46.1667627 0 49 C-0.763125 49.763125 -1.52625 50.52625 -2.3125 51.3125 C-2.869375 51.869375 -3.42625 52.42625 -4 53 C-4.495 51.515 -4.495 51.515 -5 50 C-4.34 49.34 -3.68 48.68 -3 48 C-3.66 47.34 -4.32 46.68 -5 46 C-4.525625 45.4225 -4.05125 44.845 -3.5625 44.25 C-0.40748023 39.70677153 -0.79423969 34.6632196 -0.68359375 29.296875 C-0.66281265 28.45908508 -0.64203156 27.62129517 -0.62062073 26.75811768 C-0.5553745 24.08882644 -0.49635642 21.41943902 -0.4375 18.75 C-0.39429106 16.93749016 -0.35067601 15.12498995 -0.30664062 13.3125 C-0.19971871 8.87509791 -0.09838134 4.43759932 0 0 Z " fill="#2F245D" transform="translate(220,85)"/>
<path d="M0 0 C1.91531096 3.83062191 2.45613644 5.76991833 1.796875 9.9609375 C0.20869496 14.02480996 -3.17706402 16.16309282 -7 18 C-10.5698929 18.40305242 -12.78509882 18.60745059 -16 17 C-16 16.34 -16 15.68 -16 15 C-10.06 14.505 -10.06 14.505 -4 14 C-4 13.34 -4 12.68 -4 12 C-8.62 12 -13.24 12 -18 12 C-17.67 11.01 -17.34 10.02 -17 9 C-14.87506859 8.97306425 -12.75004088 8.95363372 -10.625 8.9375 C-9.44164062 8.92589844 -8.25828125 8.91429687 -7.0390625 8.90234375 C-4 9 -4 9 -2 10 C-1.34 6.7 -0.68 3.4 0 0 Z " fill="#12143B" transform="translate(352,129)"/>
<path d="M0 0 C0.66 0 1.32 0 2 0 C2 0.66 2 1.32 2 2 C-6.35044629 8.85164824 -17.59220322 8.94386302 -28 9 C-31.17148817 8.58632763 -33.92560572 7.91692461 -37 7 C-37 6.34 -37 5.68 -37 5 C-27.1 5.33 -17.2 5.66 -7 6 C-7 5.34 -7 4.68 -7 4 C-6.030625 3.525625 -5.06125 3.05125 -4.0625 2.5625 C-1.19522563 1.29806053 -1.19522563 1.29806053 0 0 Z " fill="#12143A" transform="translate(217,139)"/>
<path d="M0 0 C2.46457475 3.69686212 2.24479789 5.56099338 2.23046875 9.96875 C2.23001053 10.64546753 2.22955231 11.32218506 2.2290802 12.01940918 C2.22606292 13.44834143 2.21819226 14.87727055 2.20581055 16.30615234 C2.18756693 18.49198069 2.18530088 20.67738474 2.18554688 22.86328125 C2.14770776 33.55687672 2.14770776 33.55687672 1 37 C-0.485 37.495 -0.485 37.495 -2 38 C-1.84152588 36.9989624 -1.68305176 35.9979248 -1.51977539 34.96655273 C-0.97700021 31.15564804 -0.79540523 27.38466588 -0.68359375 23.53515625 C-0.66281265 22.85698349 -0.64203156 22.17881073 -0.62062073 21.48008728 C-0.55590691 19.34098169 -0.4966091 17.20176704 -0.4375 15.0625 C-0.39424016 13.60090076 -0.35062366 12.13931203 -0.30664062 10.67773438 C-0.20030749 7.1186016 -0.0988267 3.55935003 0 0 Z " fill="#182C6A" transform="translate(285,89)"/>
<path d="M0 0 C3.0151811 4.52277166 4.99837773 9.47326296 7.1875 14.4375 C7.66380859 15.48744141 8.14011719 16.53738281 8.63085938 17.61914062 C9.07623047 18.63041016 9.52160156 19.64167969 9.98046875 20.68359375 C10.39192139 21.60712646 10.80337402 22.53065918 11.22729492 23.48217773 C12.05403833 26.17608129 11.97634571 27.3998372 11 30 C7.98429654 24.19106301 5.27529776 18.37028201 2.9140625 12.265625 C2.12195208 10.30227439 1.19680352 8.39360704 0.25 6.5 C-1 4 -1 4 -1 2 C-4.3 2 -7.6 2 -11 2 C-11 1.67 -11 1.34 -11 1 C-5.555 0.505 -5.555 0.505 0 0 Z " fill="#28174D" transform="translate(325,83)"/>
<path d="M0 0 C1.82484977 5.80038372 0.90630702 12.07078455 0.6875 18.0625 C0.65205078 19.35478516 0.61660156 20.64707031 0.58007812 21.97851562 C0.53689453 23.21408203 0.49371094 24.44964844 0.44921875 25.72265625 C0.41143311 26.85453369 0.37364746 27.98641113 0.3347168 29.15258789 C0 32 0 32 -2 35 C-2.66 35 -3.32 35 -4 35 C-4 35.66 -4 36.32 -4 37 C-8.92127034 37.16682272 -12.50343896 37.24828052 -17 35 C-14.08689608 33.54344804 -11.39574735 34.07832717 -8.19140625 34.2578125 C-5.94394406 34.17532548 -5.94394406 34.17532548 -4.27734375 32.7421875 C-1.73151904 29.26990059 -1.84390884 25.3990986 -1.71875 21.2109375 C-1.68136719 20.10492188 -1.64398438 18.99890625 -1.60546875 17.859375 C-1.53491999 15.52865297 -1.46460907 13.19792373 -1.39453125 10.8671875 C-1.33845703 9.21203125 -1.33845703 9.21203125 -1.28125 7.5234375 C-1.23581055 6.0062915 -1.23581055 6.0062915 -1.18945312 4.45849609 C-1 2 -1 2 0 0 Z " fill="#131D4B" transform="translate(205,86)"/>
<path d="M0 0 C2.42869909 3.64304864 2.25675675 6.30722339 2.1953125 10.51171875 C2.1924826 11.23994339 2.18965271 11.96816803 2.18673706 12.71846008 C2.17555257 15.04164137 2.15045166 17.36443547 2.125 19.6875 C2.11496794 21.2636663 2.10584248 22.83983865 2.09765625 24.41601562 C2.07561896 28.27749267 2.04110141 32.13868071 2 36 C1.67 36 1.34 36 1 36 C0.67 26.76 0.34 17.52 0 8 C-0.33 14.93 -0.66 21.86 -1 29 C-1.33 29 -1.66 29 -2 29 C-2.05821935 25.10422976 -2.0936703 21.20857198 -2.125 17.3125 C-2.14175781 16.20970703 -2.15851563 15.10691406 -2.17578125 13.97070312 C-2.18222656 12.90400391 -2.18867188 11.83730469 -2.1953125 10.73828125 C-2.20578613 9.75899658 -2.21625977 8.77971191 -2.22705078 7.77075195 C-1.98597685 4.82887228 -1.23055542 2.66762274 0 0 Z " fill="#18225B" transform="translate(207,85)"/>
<path d="M0 0 C0.99 0.495 0.99 0.495 2 1 C2.22820479 4.66570856 2.42892166 8.33244382 2.625 12 C2.68945312 13.02996094 2.75390625 14.05992188 2.8203125 15.12109375 C3.13068081 21.21207181 2.83490161 26.17313689 1 32 C0.67 32 0.34 32 0 32 C0 21.44 0 10.88 0 0 Z " fill="#142255" transform="translate(287,90)"/>
<path d="M0 0 C0.99 0.33 1.98 0.66 3 1 C3.625 3.375 3.625 3.375 4 6 C3.34 6.66 2.68 7.32 2 8 C6.62 8 11.24 8 16 8 C16 8.66 16 9.32 16 10 C12.31599416 11.23104155 9.08525024 10.90767252 5.25 10.5625 C4.07953125 10.46066406 2.9090625 10.35882813 1.703125 10.25390625 C0.81109375 10.17011719 -0.0809375 10.08632812 -1 10 C-1 9.01 -1 8.02 -1 7 C-0.34 7 0.32 7 1 7 C0.67 4.69 0.34 2.38 0 0 Z " fill="#1C2054" transform="translate(332,133)"/>
<path d="M0 0 C7.92 0 15.84 0 24 0 C24 0.99 24 1.98 24 3 C16.08 3 8.16 3 0 3 C0 2.01 0 1.02 0 0 Z " fill="#1A2F73" transform="translate(307,132)"/>
<path d="M0 0 C0.66 0 1.32 0 2 0 C5.22988119 7.93359166 8.41874331 15.82602049 11 24 C10.34 24.33 9.68 24.66 9 25 C7.49144661 21.3993541 5.99464176 17.79394041 4.5 14.1875 C4.07074219 13.16333984 3.64148438 12.13917969 3.19921875 11.08398438 C2.79316406 10.10107422 2.38710938 9.11816406 1.96875 8.10546875 C1.59169922 7.19949951 1.21464844 6.29353027 0.82617188 5.36010742 C0 3 0 3 0 0 Z " fill="#29184D" transform="translate(337,114)"/>
<path d="M0 0 C-2.97 0 -5.94 0 -9 0 C-9.66 1.32 -10.32 2.64 -11 4 C-12.1762248 5.60732981 -13.3863747 7.19024962 -14.625 8.75 C-15.57246094 9.94882813 -15.57246094 9.94882813 -16.5390625 11.171875 C-17.02117187 11.77515625 -17.50328125 12.3784375 -18 13 C-18.66 12.67 -19.32 12.34 -20 12 C-17.40793943 6.61648959 -15.12752004 2.33885026 -10 -1 C-5.4244072 -2.30731223 -4.40746471 -2.20373236 0 0 Z " fill="#12143B" transform="translate(322,78)"/>
<path d="M0 0 C0.99 0.33 1.98 0.66 3 1 C2.01 1.33 1.02 1.66 0 2 C0 1.34 0 0.68 0 0 Z M-2 2 C-1.34 2.33 -0.68 2.66 0 3 C-2.30556688 5.83936808 -3.51512775 6.9066172 -7.1640625 7.609375 C-8.87722656 7.67898437 -8.87722656 7.67898437 -10.625 7.75 C-11.77226562 7.80671875 -12.91953125 7.8634375 -14.1015625 7.921875 C-15.73398976 7.96587573 -17.36697984 8 -19 8 C-19 7.34 -19 6.68 -19 6 C-15.0938768 4.0469384 -10.38419293 4.05804741 -6.08984375 3.5 C-3.13620291 3.33122678 -3.13620291 3.33122678 -2 2 Z " fill="#121439" transform="translate(311,139)"/>
<path d="M0 0 C0.66 0.99 1.32 1.98 2 3 C-0.87323249 6.56618856 -2.2690175 7.89483853 -6.8828125 8.55859375 C-8.2973768 8.54410566 -9.71188503 8.50313649 -11.125 8.4375 C-11.84042969 8.43169922 -12.55585938 8.42589844 -13.29296875 8.41992188 C-17.02405802 8.33274689 -18.83327881 8.11114746 -22 6 C-21.16021606 5.99383667 -21.16021606 5.99383667 -20.3034668 5.98754883 C-17.7637413 5.95462695 -15.22642019 5.88399306 -12.6875 5.8125 C-11.36588867 5.80379883 -11.36588867 5.80379883 -10.01757812 5.79492188 C-7.57668631 5.71139326 -5.37076373 5.59169242 -3 5 C-0.8070043 2.63186061 -0.8070043 2.63186061 0 0 Z " fill="#27154A" transform="translate(208,121)"/>
<path d="M0 0 C0 3 0 3 -0.375 6 C-0.3629505 11.65121487 2.75847417 16.55608607 6 21 C8.31519998 22.88543232 10.21845521 23.83175119 13 25 C9.25 26.125 9.25 26.125 7 25 C7 24.34 7 23.68 7 23 C6.39671875 22.76410156 5.7934375 22.52820313 5.171875 22.28515625 C1.06433883 19.85461776 -0.44464534 15.35623237 -2 11 C-2.45857367 7.92894602 -2.62510614 5.05315001 -2 2 C-1.34 1.34 -0.68 0.68 0 0 Z " fill="#131B48" transform="translate(167,116)"/>
<path d="M0 0 C0.66 0 1.32 0 2 0 C4.31320723 7.89211879 3.85602429 14.86776924 3 23 C2.34 23 1.68 23 1 23 C0.67 15.41 0.34 7.82 0 0 Z " fill="#12153E" transform="translate(226,86)"/>
<path d="M0 0 C0.66 0.99 1.32 1.98 2 3 C-1.02068304 6.00287941 -2.62265392 6.95560634 -6.91796875 7.4609375 C-8.34141217 7.4530368 -9.76487561 7.42392283 -11.1875 7.375 C-11.91130859 7.37371094 -12.63511719 7.37242187 -13.38085938 7.37109375 C-18.71827696 7.28172304 -18.71827696 7.28172304 -21 5 C-19.73542969 4.97421875 -18.47085938 4.9484375 -17.16796875 4.921875 C-15.50777782 4.86559734 -13.8476229 4.80824993 -12.1875 4.75 C-10.93743164 4.72873047 -10.93743164 4.72873047 -9.66210938 4.70703125 C-4.77923838 4.64313081 -4.77923838 4.64313081 -0.92578125 1.953125 C-0.46751953 0.98632812 -0.46751953 0.98632812 0 0 Z " fill="#271549" transform="translate(270,122)"/>
<path d="M0 0 C0.33 0 0.66 0 1 0 C0.84416294 6.12014618 -0.24575271 10.1866978 -3.84375 15.17578125 C-5.07269526 17.11469151 -5.56471888 18.7592915 -6 21 C-6.66 20.67 -7.32 20.34 -8 20 C-7.52147263 16.05214918 -6.09550219 13.29555838 -4.0546875 9.9140625 C-2.30930842 6.74652269 -1.19580526 3.40804499 0 0 Z " fill="#141F50" transform="translate(302,95)"/>
<path d="M0 0 C0.33 0 0.66 0 1 0 C1 1.98 1 3.96 1 6 C1.99 6 2.98 6 4 6 C4 7.65 4 9.3 4 11 C4.66 11 5.32 11 6 11 C6 12.65 6 14.3 6 16 C6.66 16 7.32 16 8 16 C8 17.98 8 19.96 8 22 C6 21 6 21 5.25390625 19.328125 C5.02574219 18.64234375 4.79757812 17.9565625 4.5625 17.25 C3.65989824 14.65271737 2.86771333 12.80401975 1.3125 10.5 C-0.58463612 6.8864074 -0.20586901 4.04875726 0 0 Z " fill="#131944" transform="translate(333,86)"/>
<path d="M0 0 C0.33 0.99 0.66 1.98 1 3 C1.66 3.33 2.32 3.66 3 4 C4.71493523 10.8459108 3.73047074 17.27833678 2 24 C1.67 24 1.34 24 1 24 C0.67 16.08 0.34 8.16 0 0 Z " fill="#121740" transform="translate(288,86)"/>
<path d="M0 0 C0.226875 0.556875 0.45375 1.11375 0.6875 1.6875 C1.99203598 4.22472385 1.99203598 4.22472385 4.625 6.625 C7 9 7 9 7 11 C12.28 11.33 17.56 11.66 23 12 C23 12.33 23 12.66 23 13 C20.60347472 13.08139142 18.20974564 13.14067009 15.8125 13.1875 C15.13896484 13.21263672 14.46542969 13.23777344 13.77148438 13.26367188 C9.27957877 13.32940708 6.59007679 12.70575641 3 10 C0.45492876 7.45492876 0.02315801 6.40140544 -0.1875 2.75 C-0.125625 1.8425 -0.06375 0.935 0 0 Z " fill="#503373" transform="translate(242,117)"/>
<path d="M0 0 C0.33 0.66 0.66 1.32 1 2 C2.32 1.67 3.64 1.34 5 1 C3.43388934 4.13222131 1.18298914 4.70322665 -2 6 C-5.77547723 6.25596456 -8.41155176 6.19614941 -12 5 C-12 4.34 -12 3.68 -12 3 C-8.04 3 -4.08 3 0 3 C0 2.01 0 1.02 0 0 Z " fill="#152154" transform="translate(304,138)"/>
<path d="M0 0 C0.91007813 0.00902344 1.82015625 0.01804687 2.7578125 0.02734375 C3.45648438 0.03894531 4.15515625 0.05054687 4.875 0.0625 C4.545 1.0525 4.215 2.0425 3.875 3.0625 C0.575 3.0625 -2.725 3.0625 -6.125 3.0625 C-6.125 5.0425 -6.125 7.0225 -6.125 9.0625 C-6.455 9.0625 -6.785 9.0625 -7.125 9.0625 C-7.125 6.4225 -7.125 3.7825 -7.125 1.0625 C-4.60024538 -0.19987731 -2.81299534 -0.03606404 0 0 Z " fill="#162054" transform="translate(237.125,111.9375)"/>
<path d="M0 0 C3.30273437 2.67364211 4.52389713 6.14688641 6 10 C6.36738281 10.92296875 6.73476563 11.8459375 7.11328125 12.796875 C7.67595703 14.25867188 7.67595703 14.25867188 8.25 15.75 C8.60578125 16.67296875 8.9615625 17.5959375 9.328125 18.546875 C10 21 10 21 9 24 C7.4943349 20.37732706 5.99643454 16.75149451 4.5 13.125 C4.07074219 12.09246094 3.64148438 11.05992188 3.19921875 9.99609375 C2.79316406 9.00996094 2.38710938 8.02382812 1.96875 7.0078125 C1.59169922 6.09660645 1.21464844 5.18540039 0.82617188 4.24658203 C0 2 0 2 0 0 Z " fill="#152458" transform="translate(333,94)"/>
<path d="M0 0 C2.46800047 1.15173355 4.04783565 2.04783565 6 4 C6.125 7.125 6.125 7.125 6 10 C5.01 10.33 4.02 10.66 3 11 C0 4.5 0 4.5 0 0 Z " fill="#182966" transform="translate(327,84)"/>
<path d="M0 0 C0.33 0 0.66 0 1 0 C1.60812323 5.77717073 -0.18275596 10.99680072 -3 16 C-3.99 16.33 -4.98 16.66 -6 17 C-4.33846988 11.14340094 -2.52958084 5.5409866 0 0 Z " fill="#3C2764" transform="translate(317,100)"/>
<path d="M0 0 C0.33 0 0.66 0 1 0 C1.268125 0.94875 1.53625 1.8975 1.8125 2.875 C2.74986588 6.25267273 2.74986588 6.25267273 6 8 C6.33 8.33 6.66 8.66 7 9 C9.18292774 9.23481693 11.37203174 9.41363323 13.5625 9.5625 C14.76003906 9.64628906 15.95757812 9.73007813 17.19140625 9.81640625 C18.11824219 9.87699219 19.04507813 9.93757812 20 10 C20 10.33 20 10.66 20 11 C17.77144426 11.0814222 15.54202345 11.13938079 13.3125 11.1875 C12.07113281 11.22230469 10.82976562 11.25710937 9.55078125 11.29296875 C5.7778424 10.98167016 3.9881064 10.25889878 1 8 C-0.69057529 5.61782573 -1.10750048 4.64500286 -0.625 1.75 C-0.41875 1.1725 -0.2125 0.595 0 0 Z " fill="#4A3273" transform="translate(182,119)"/>
<path d="M0 0 C0.66 0.66 1.32 1.32 2 2 C-0.88211302 2.96070434 -2.69850044 3.10581883 -5.6875 3.0625 C-6.89986328 3.04896484 -6.89986328 3.04896484 -8.13671875 3.03515625 C-9.05904297 3.01775391 -9.05904297 3.01775391 -10 3 C-10.33 3.66 -10.66 4.32 -11 5 C-11.66 5 -12.32 5 -13 5 C-12.3125 3.0625 -12.3125 3.0625 -11 1 C-7.40054364 -0.19981879 -3.76977333 -0.25131822 0 0 Z " fill="#162257" transform="translate(322,80)"/>
<path d="M0 0 C0.33 0.66 0.66 1.32 1 2 C-1.64 1.67 -4.28 1.34 -7 1 C-7.433125 1.928125 -7.433125 1.928125 -7.875 2.875 C-9 5 -9 5 -11 7 C-11.40047444 9.32275177 -11.7397104 11.65739357 -12 14 C-12.33 14 -12.66 14 -13 14 C-13.46788961 9.22752594 -13.68514232 6.04912418 -11 1.9375 C-6.97116741 -0.66445438 -4.71992657 -0.39999378 0 0 Z " fill="#76549A" transform="translate(118,158)"/>
<path d="M0 0 C4.95 0 9.9 0 15 0 C15 0.99 15 1.98 15 3 C10.05 3 5.1 3 0 3 C0 2.01 0 1.02 0 0 Z " fill="#1C0C3B" transform="translate(289,138)"/>
<path d="M0 0 C0.33 0 0.66 0 1 0 C1.12117187 0.66386719 1.24234375 1.32773438 1.3671875 2.01171875 C2.22547708 6.53424459 3.03971311 10.79938524 5 15 C4.01 15 3.02 15 2 15 C-1.41029848 9.67993436 -1.09644404 5.94457613 0 0 Z " fill="#2D1B51" transform="translate(170,117)"/>
<path d="M0 0 C4.62 0 9.24 0 14 0 C14.33 0.99 14.66 1.98 15 3 C10.05 3 5.1 3 0 3 C0 2.01 0 1.02 0 0 Z " fill="#1C0C3B" transform="translate(334,138)"/>
<path d="M0 0 C0.33 0.66 0.66 1.32 1 2 C-1.64 1.67 -4.28 1.34 -7 1 C-7.268125 1.639375 -7.53625 2.27875 -7.8125 2.9375 C-9 5 -9 5 -12 6 C-12 7.65 -12 9.3 -12 11 C-12.33 11 -12.66 11 -13 11 C-13.45761159 7.0645403 -13.29742742 5.42755191 -11 2.125 C-6.96957293 -0.72988584 -4.84275759 -0.41040319 0 0 Z " fill="#6F4E91" transform="translate(407,158)"/>
<path d="M0 0 C0 3 0 3 -1.75 5.0625 C-3.82634719 6.85046563 -5.42626494 8.08673917 -8 9 C-8.99 8.67 -9.98 8.34 -11 8 C-7.37 5.36 -3.74 2.72 0 0 Z " fill="#172965" transform="translate(282,131)"/>
<path d="M0 0 C1.32789969 2.1871289 2.04752686 3.47720456 1.8125 6.0625 C0.89199398 8.25755282 -0.21596223 9.44866281 -2 11 C-2.99 10.67 -3.98 10.34 -5 10 C-4.54625 9.46375 -4.0925 8.9275 -3.625 8.375 C-1.78311688 5.68301698 -0.92028067 3.11479612 0 0 Z " fill="#311E56" transform="translate(281,123)"/>
<path d="M0 0 C3.375 0.3125 3.375 0.3125 7 1 C7.66 1.99 8.32 2.98 9 4 C5.7 4 2.4 4 -1 4 C-0.67 2.68 -0.34 1.36 0 0 Z " fill="#121740" transform="translate(235,108)"/>
<path d="M0 0 C2 3 2 3 3 6 C2.01 7.485 2.01 7.485 1 9 C0.34 6.69 -0.32 4.38 -1 2 C-4.3 2 -7.6 2 -11 2 C-11 1.67 -11 1.34 -11 1 C-5.555 0.505 -5.555 0.505 0 0 Z " fill="#371F56" transform="translate(325,83)"/>
<path d="M0 0 C0.33 0 0.66 0 1 0 C0.67 2.31 0.34 4.62 0 7 C-1.65 7.33 -3.3 7.66 -5 8 C-4.19185349 6.66402348 -3.37836819 5.331275 -2.5625 4 C-2.11003906 3.2575 -1.65757812 2.515 -1.19140625 1.75 C-0.79824219 1.1725 -0.40507812 0.595 0 0 Z " fill="#193882" transform="translate(207,118)"/>
<path d="M0 0 C0 3.44118336 -0.68964993 5.82757352 -2 9 C-2.99 9.33 -3.98 9.66 -5 10 C-4.49701212 5.59885603 -2.91227269 3.28804981 0 0 Z " fill="#142051" transform="translate(308,85)"/>
<path d="M0 0 C0.66 0.33 1.32 0.66 2 1 C1.0409375 2.051875 1.0409375 2.051875 0.0625 3.125 C-2.16386102 6.22841233 -2.65080943 8.24620139 -3 12 C-3.33 12 -3.66 12 -4 12 C-4.33292585 7.75519536 -4.43885872 5.64457375 -2 2.0625 C-1.34 1.381875 -0.68 0.70125 0 0 Z " fill="#8E67B8" transform="translate(389,38)"/>
<path d="M0 0 C0.66 0 1.32 0 2 0 C2 2.64 2 5.28 2 8 C0.68 6.68 -0.64 5.36 -2 4 C-1.34 2.68 -0.68 1.36 0 0 Z " fill="#162259" transform="translate(347,129)"/>
<path d="M0 0 C2.46800047 1.15173355 4.04783565 2.04783565 6 4 C5.625 6.125 5.625 6.125 5 8 C4.34 6.68 3.68 5.36 3 4 C2.01 4 1.02 4 0 4 C0 2.68 0 1.36 0 0 Z " fill="#152256" transform="translate(327,84)"/>
<path d="M0 0 C0.33 0 0.66 0 1 0 C1.125 2.875 1.125 2.875 1 6 C0.34 6.66 -0.32 7.32 -1 8 C-3.125 7.625 -3.125 7.625 -5 7 C-4.01 6.34 -3.02 5.68 -2 5 C-0.79549696 2.44816596 -0.79549696 2.44816596 0 0 Z " fill="#1A3984" transform="translate(269,118)"/>
<path d="M0 0 C2.0625 0.4375 2.0625 0.4375 4 1 C3.67 1.99 3.34 2.98 3 4 C2.01 3.67 1.02 3.34 0 3 C-0.33 3.99 -0.66 4.98 -1 6 C-1.66 6 -2.32 6 -3 6 C-1.125 1.125 -1.125 1.125 0 0 Z " fill="#232660" transform="translate(310,84)"/>
</svg>
