<?xml version="1.0" encoding="UTF-8"?>
<svg version="1.1" xmlns="http://www.w3.org/2000/svg" width="301" height="209">
<path d="M0 0 C1.26457031 0.04640625 2.52914062 0.0928125 3.83203125 0.140625 C5.74048828 0.19476563 5.74048828 0.19476563 7.6875 0.25 C8.66332031 0.29640625 9.63914063 0.3428125 10.64453125 0.390625 C14.03288242 6.9475035 17.05491214 13.55726845 19.78125 20.4140625 C20.32952202 21.77695908 20.32952202 21.77695908 20.88887024 23.16738892 C22.04055071 26.03189727 23.18662431 28.89860304 24.33203125 31.765625 C25.48904321 34.65370023 26.64726706 37.54127891 27.80732727 40.4281311 C28.52494792 42.21475433 29.24068045 44.00213743 29.95426941 45.79037476 C30.27833267 46.5986673 30.60239594 47.40695984 30.9362793 48.23974609 C31.21876022 48.94682709 31.50124115 49.65390808 31.7922821 50.38241577 C32.61848248 52.42410501 32.61848248 52.42410501 33.751297 54.40005493 C34.64453125 56.390625 34.64453125 56.390625 34.64453125 60.390625 C29.36453125 60.390625 24.08453125 60.390625 18.64453125 60.390625 C17.32453125 57.750625 16.00453125 55.110625 14.64453125 52.390625 C7.38453125 52.390625 0.12453125 52.390625 -7.35546875 52.390625 C-8.34546875 54.700625 -9.33546875 57.010625 -10.35546875 59.390625 C-11.35546875 60.390625 -11.35546875 60.390625 -14.734375 60.48828125 C-16.12893952 60.48160869 -17.52348618 60.46965032 -18.91796875 60.453125 C-19.9843457 60.44635742 -19.9843457 60.44635742 -21.07226562 60.43945312 C-22.83336888 60.42763364 -24.59442911 60.40969763 -26.35546875 60.390625 C-27.76068764 56.17496833 -26.03306584 53.46919845 -24.3828125 49.56640625 C-24.06268692 48.78734421 -23.74256134 48.00828217 -23.41273499 47.20561218 C-22.38171283 44.70099699 -21.33794008 42.20194852 -20.29296875 39.703125 C-18.94400028 36.45083072 -17.60064757 33.19623669 -16.2578125 29.94140625 C-15.92631195 29.1423587 -15.5948114 28.34331116 -15.25326538 27.52005005 C-12.79134485 21.55326109 -10.490586 15.53782678 -8.34861755 9.44856262 C-5.15314759 0.59990077 -5.15314759 0.59990077 0 0 Z M3.64453125 24.390625 C2.99360535 25.63798067 2.34901456 26.88864332 1.70703125 28.140625 C1.16755859 29.18476562 1.16755859 29.18476562 0.6171875 30.25 C-0.54469831 32.63608043 -0.54469831 32.63608043 -1.35546875 36.390625 C1.61453125 36.390625 4.58453125 36.390625 7.64453125 36.390625 C7.04528901 32.19592929 6.06953184 28.38062666 4.64453125 24.390625 C4.31453125 24.390625 3.98453125 24.390625 3.64453125 24.390625 Z " fill="#AF82E0" transform="translate(203.35546875,69.609375)"/>
<path d="M0 0 C4.95 0 9.9 0 15 0 C16.44129776 5.76519105 16.18596262 11.5156989 16.18530273 17.42431641 C16.18747193 19.59688422 16.20559588 21.76892933 16.22460938 23.94140625 C16.31778481 46.39491186 16.31778481 46.39491186 9 54 C-0.86451287 60.42712184 -11.70947021 61.59707138 -23.18359375 59.38671875 C-29.8622789 57.28399818 -34.2236621 53.9122258 -38 48 C-40.63943561 42.63343989 -40.14195287 37.89104417 -40 32 C-35.38 31.67 -30.76 31.34 -26 31 C-24.4268854 34.9327865 -23.57267372 37.89583836 -23 42 C-19.2776599 43.24078003 -15.81203967 43.14555459 -11.9375 43.125 C-11.20466797 43.12886719 -10.47183594 43.13273437 -9.71679688 43.13671875 C-5.72879812 43.21095757 -5.72879812 43.21095757 -2 42 C-0.90952972 38.94376843 -0.89577509 36.07191451 -0.9375 32.8515625 C-0.94587891 31.85189453 -0.95425781 30.85222656 -0.96289062 29.82226562 C-0.97513672 28.76716797 -0.98738281 27.71207031 -1 26.625 C-1.05913007 17.67485834 -0.81074589 8.9182048 0 0 Z " fill="#B687E9" transform="translate(158,70)"/>
<path d="M0 0 C4.95 0 9.9 0 15 0 C15.19411497 4.94340999 15.37251662 9.88706182 15.53710938 14.83154297 C15.59508964 16.50942753 15.65717485 18.18717593 15.72363281 19.86474609 C16.6650121 43.81286469 16.6650121 43.81286469 10.76953125 52.171875 C5.10006027 58.02907681 -1.79473171 60.26405596 -9.76611328 60.60864258 C-18.94867856 60.67231799 -26.47415983 59.54196187 -33.875 53.75 C-38.55548186 47.69290583 -41.08049241 41.75946836 -41 34 C-40.67 33.34 -40.34 32.68 -40 32 C-35.05 32 -30.1 32 -25 32 C-24.54427083 34.57161458 -24.08854167 37.14322917 -23.6328125 39.71484375 C-23.42398438 40.46894531 -23.21515625 41.22304687 -23 42 C-20.65147472 43.17426264 -19.26225935 43.11508173 -16.6484375 43.09765625 C-15.37226562 43.09282227 -15.37226562 43.09282227 -14.0703125 43.08789062 C-12.73613281 43.07532227 -12.73613281 43.07532227 -11.375 43.0625 C-10.4778125 43.05798828 -9.580625 43.05347656 -8.65625 43.04882812 C-6.43743352 43.03702591 -4.21874982 43.02056155 -2 43 C-1.02045007 34.49781272 -0.91003669 26.11351214 -1 17.5625 C-1.0255051 15.0846791 -1.04653929 12.60680701 -1.0625 10.12890625 C-1.07410156 9.04681885 -1.08570313 7.96473145 -1.09765625 6.84985352 C-1 4 -1 4 0 0 Z " fill="#B385E5" transform="translate(96,70)"/>
<path d="M0 0 C1.1583284 -0.00960754 2.3166568 -0.01921509 3.51008606 -0.02911377 C4.75803452 -0.03336365 6.00598297 -0.03761353 7.29174805 -0.04199219 C8.57905319 -0.04769226 9.86635834 -0.05339233 11.19267273 -0.05926514 C13.9170267 -0.06975504 16.64135135 -0.07561068 19.36572266 -0.07910156 C22.84244097 -0.08457895 26.31876622 -0.10859874 29.79536152 -0.13707352 C33.12748231 -0.16027255 36.45955074 -0.16215426 39.79174805 -0.16699219 C41.03362381 -0.17933899 42.27549957 -0.19168579 43.55500793 -0.20440674 C49.86635011 -0.18818718 54.72123876 -0.03669205 60.2409668 3.16113281 C62.69657402 6.25733322 62.5618336 9.31073112 62.2409668 13.16113281 C61.32548696 16.36531223 60.45332617 17.03612331 57.54162598 18.75015259 C54.07133764 20.23364663 51.80236903 20.54081724 48.05541992 20.54931641 C46.85397339 20.55877289 45.65252686 20.56822937 44.41467285 20.57797241 C43.13016235 20.57189972 41.84565186 20.56582703 40.5222168 20.55957031 C39.17752932 20.56159395 37.83284292 20.56450779 36.48815918 20.56826782 C33.677302 20.57267763 30.86673187 20.56630396 28.0559082 20.55224609 C24.46474607 20.53515453 20.87425669 20.545003 17.2831192 20.56296349 C14.50859569 20.57383802 11.73422997 20.5703383 8.95970154 20.56258011 C6.99555013 20.55962424 5.03139243 20.56868672 3.06726074 20.57797241 C1.86581421 20.56851593 0.66436768 20.55905945 -0.57348633 20.54931641 C-2.15184265 20.54573624 -2.15184265 20.54573624 -3.76208496 20.54208374 C-7.31872596 20.08998862 -9.70350256 19.01698664 -12.7590332 17.16113281 C-15.21024717 13.48431186 -15.58322082 10.43192319 -14.7590332 6.16113281 C-10.42539607 0.50332878 -6.7826801 0.04548735 0 0 Z " fill="#B68AE9" transform="translate(211.759033203125,144.8388671875)"/>
<path d="M0 0 C4.95 0 9.9 0 15 0 C16.44129776 5.76519105 16.18596262 11.5156989 16.18530273 17.42431641 C16.18747193 19.59688422 16.20559588 21.76892933 16.22460938 23.94140625 C16.31778481 46.39491186 16.31778481 46.39491186 9 54 C-0.86451287 60.42712184 -11.70947021 61.59707138 -23.18359375 59.38671875 C-29.8622789 57.28399818 -34.2236621 53.9122258 -38 48 C-40.63943561 42.63343989 -40.14195287 37.89104417 -40 32 C-35.38 31.67 -30.76 31.34 -26 31 C-24.4268854 34.9327865 -23.57267372 37.89583836 -23 42 C-19.2776599 43.24078003 -15.81203967 43.14555459 -11.9375 43.125 C-11.20466797 43.12886719 -10.47183594 43.13273437 -9.71679688 43.13671875 C-5.72879812 43.21095757 -5.72879812 43.21095757 -2 42 C-0.90952972 38.94376843 -0.89577509 36.07191451 -0.9375 32.8515625 C-0.94587891 31.85189453 -0.95425781 30.85222656 -0.96289062 29.82226562 C-0.97513672 28.76716797 -0.98738281 27.71207031 -1 26.625 C-1.05913007 17.67485834 -0.81074589 8.9182048 0 0 Z M3 3 C2.9906543 4.12494873 2.98130859 5.24989746 2.97167969 6.40893555 C2.93172745 10.59325369 2.86595448 14.77684063 2.79248047 18.96069336 C2.76430111 20.76951689 2.74307145 22.57846286 2.72900391 24.38745117 C2.70753186 26.99200994 2.66086189 29.59510134 2.609375 32.19921875 C2.60753204 33.40731453 2.60753204 33.40731453 2.60565186 34.63981628 C2.47553095 39.65767836 1.78304793 42.36557656 -2 46 C-7.47862503 48.28740964 -15.3192761 47.6187032 -21 46.25 C-24.28440754 44.88149686 -25.42147081 44.15705838 -27 41 C-27.6875 37.75 -27.6875 37.75 -28 35 C-30.97 35 -33.94 35 -37 35 C-37.49804402 40.97652822 -36.33537647 44.99146747 -33 50 C-27.33953219 55.81770303 -20.89044152 57.1894238 -13.0625 57.375 C-4.1560237 57.15591021 2.74503752 55.55281783 9 49 C11.95483032 43.44144738 12.41104465 39.01499437 12.29296875 32.78515625 C12.28660149 31.50154457 12.28660149 31.50154457 12.28010559 30.19200134 C12.26342789 27.4818358 12.22579705 24.77243752 12.1875 22.0625 C12.17243902 20.2155056 12.1587531 18.36849944 12.14648438 16.52148438 C12.11356026 12.01403116 12.06185469 7.50714528 12 3 C9.03 3 6.06 3 3 3 Z " fill="#26184C" transform="translate(158,70)"/>
<path d="M0 0 C4.95 0 9.9 0 15 0 C15.19411497 4.94340999 15.37251662 9.88706182 15.53710938 14.83154297 C15.59508964 16.50942753 15.65717485 18.18717593 15.72363281 19.86474609 C16.6650121 43.81286469 16.6650121 43.81286469 10.76953125 52.171875 C5.10006027 58.02907681 -1.79473171 60.26405596 -9.76611328 60.60864258 C-18.94867856 60.67231799 -26.47415983 59.54196187 -33.875 53.75 C-38.55548186 47.69290583 -41.08049241 41.75946836 -41 34 C-40.67 33.34 -40.34 32.68 -40 32 C-35.05 32 -30.1 32 -25 32 C-24.54427083 34.57161458 -24.08854167 37.14322917 -23.6328125 39.71484375 C-23.42398438 40.46894531 -23.21515625 41.22304687 -23 42 C-20.65147472 43.17426264 -19.26225935 43.11508173 -16.6484375 43.09765625 C-15.37226562 43.09282227 -15.37226562 43.09282227 -14.0703125 43.08789062 C-12.73613281 43.07532227 -12.73613281 43.07532227 -11.375 43.0625 C-10.4778125 43.05798828 -9.580625 43.05347656 -8.65625 43.04882812 C-6.43743352 43.03702591 -4.21874982 43.02056155 -2 43 C-1.02045007 34.49781272 -0.91003669 26.11351214 -1 17.5625 C-1.0255051 15.0846791 -1.04653929 12.60680701 -1.0625 10.12890625 C-1.07410156 9.04681885 -1.08570313 7.96473145 -1.09765625 6.84985352 C-1 4 -1 4 0 0 Z M3 3 C2.9906543 4.12494873 2.98130859 5.24989746 2.97167969 6.40893555 C2.93172745 10.59325369 2.86595448 14.77684063 2.79248047 18.96069336 C2.76430111 20.76951689 2.74307145 22.57846286 2.72900391 24.38745117 C2.70753186 26.99200994 2.66086189 29.59510134 2.609375 32.19921875 C2.60753204 33.40731453 2.60753204 33.40731453 2.60565186 34.63981628 C2.50559523 38.49830724 2.22905188 40.6064957 0.2487793 44.00854492 C-2.28004739 46.24800201 -3.26663895 46.64019135 -6.58984375 46.6640625 C-7.45673828 46.67050781 -8.32363281 46.67695312 -9.21679688 46.68359375 C-10.11462891 46.66425781 -11.01246094 46.64492187 -11.9375 46.625 C-12.83146484 46.64433594 -13.72542969 46.66367188 -14.64648438 46.68359375 C-19.20577904 46.64974598 -21.35553412 46.48825651 -25.078125 43.66796875 C-27.22419943 40.6887638 -27.74657957 38.63235956 -28 35 C-30.97 35 -33.94 35 -37 35 C-37.28944223 40.59588314 -37.20887163 44.18669255 -34 49 C-27.52014508 55.39133232 -22.17961409 57.13093848 -13.25 57.25 C-5.83502073 57.18012061 -0.16580673 56.39194286 5.8125 51.875 C13.19367675 42.17402484 12.4848463 32.62331881 12.25 20.9375 C12.22990621 19.19598406 12.21166053 17.45444576 12.1953125 15.71289062 C12.15153994 11.47470223 12.08267248 7.23760079 12 3 C9.03 3 6.06 3 3 3 Z " fill="#25164C" transform="translate(96,70)"/>
<path d="M0 0 C1.26457031 0.04640625 2.52914062 0.0928125 3.83203125 0.140625 C5.74048828 0.19476563 5.74048828 0.19476563 7.6875 0.25 C8.66332031 0.29640625 9.63914063 0.3428125 10.64453125 0.390625 C14.03288242 6.9475035 17.05491214 13.55726845 19.78125 20.4140625 C20.32952202 21.77695908 20.32952202 21.77695908 20.88887024 23.16738892 C22.04055071 26.03189727 23.18662431 28.89860304 24.33203125 31.765625 C25.48904321 34.65370023 26.64726706 37.54127891 27.80732727 40.4281311 C28.52494792 42.21475433 29.24068045 44.00213743 29.95426941 45.79037476 C30.27833267 46.5986673 30.60239594 47.40695984 30.9362793 48.23974609 C31.21876022 48.94682709 31.50124115 49.65390808 31.7922821 50.38241577 C32.61848248 52.42410501 32.61848248 52.42410501 33.751297 54.40005493 C34.64453125 56.390625 34.64453125 56.390625 34.64453125 60.390625 C29.36453125 60.390625 24.08453125 60.390625 18.64453125 60.390625 C17.32453125 57.750625 16.00453125 55.110625 14.64453125 52.390625 C7.38453125 52.390625 0.12453125 52.390625 -7.35546875 52.390625 C-8.34546875 54.700625 -9.33546875 57.010625 -10.35546875 59.390625 C-11.35546875 60.390625 -11.35546875 60.390625 -14.734375 60.48828125 C-16.12893952 60.48160869 -17.52348618 60.46965032 -18.91796875 60.453125 C-19.9843457 60.44635742 -19.9843457 60.44635742 -21.07226562 60.43945312 C-22.83336888 60.42763364 -24.59442911 60.40969763 -26.35546875 60.390625 C-27.76068764 56.17496833 -26.03306584 53.46919845 -24.3828125 49.56640625 C-24.06268692 48.78734421 -23.74256134 48.00828217 -23.41273499 47.20561218 C-22.38171283 44.70099699 -21.33794008 42.20194852 -20.29296875 39.703125 C-18.94400028 36.45083072 -17.60064757 33.19623669 -16.2578125 29.94140625 C-15.92631195 29.1423587 -15.5948114 28.34331116 -15.25326538 27.52005005 C-12.79134485 21.55326109 -10.490586 15.53782678 -8.34861755 9.44856262 C-5.15314759 0.59990077 -5.15314759 0.59990077 0 0 Z M-1.35546875 3.390625 C-4.01001207 8.51085086 -6.54251618 13.57403193 -8.484375 19.015625 C-9.66370347 22.23101383 -10.94984392 25.40214344 -12.23046875 28.578125 C-14.62389466 34.52006497 -16.93285245 40.48900004 -19.1796875 46.48828125 C-20.35546875 49.390625 -20.35546875 49.390625 -22 52.63671875 C-23.50267049 55.17812602 -23.50267049 55.17812602 -23.35546875 57.390625 C-20.05546875 57.390625 -16.75546875 57.390625 -13.35546875 57.390625 C-12.36546875 54.420625 -11.37546875 51.450625 -10.35546875 48.390625 C-1.11546875 48.390625 8.12453125 48.390625 17.64453125 48.390625 C18.13953125 51.360625 18.13953125 51.360625 18.64453125 54.390625 C19.30453125 55.380625 19.96453125 56.370625 20.64453125 57.390625 C23.08146436 57.75478547 23.08146436 57.75478547 25.76953125 57.578125 C26.67960937 57.55105469 27.5896875 57.52398437 28.52734375 57.49609375 C29.22601563 57.46128906 29.9246875 57.42648438 30.64453125 57.390625 C29.29059869 52.21706157 27.76705125 47.38354941 25.26953125 42.640625 C22.67233906 37.67040305 20.87104185 32.5658223 19.0390625 27.2734375 C17.48413966 22.85998123 15.73429758 18.53100369 13.95703125 14.203125 C13.65941895 13.472146 13.36180664 12.74116699 13.05517578 11.98803711 C11.77886597 8.90380292 10.50212867 6.17702114 8.64453125 3.390625 C6.20759814 3.02646453 6.20759814 3.02646453 3.51953125 3.203125 C2.60945313 3.23019531 1.699375 3.25726563 0.76171875 3.28515625 C0.06304687 3.31996094 -0.635625 3.35476562 -1.35546875 3.390625 Z " fill="#28184E" transform="translate(203.35546875,69.609375)"/>
<path d="M0 0 C1.40185547 0.00966797 1.40185547 0.00966797 2.83203125 0.01953125 C4.28416016 0.04466797 4.28416016 0.04466797 5.765625 0.0703125 C6.74917969 0.07933594 7.73273438 0.08835937 8.74609375 0.09765625 C11.16937526 0.12118325 13.59253131 0.15705313 16.015625 0.1953125 C16.015625 6.7953125 16.015625 13.3953125 16.015625 20.1953125 C12.839375 20.2365625 9.663125 20.2778125 6.390625 20.3203125 C5.4011084 20.33852051 4.4115918 20.35672852 3.39208984 20.37548828 C-7.48621516 20.44365635 -7.48621516 20.44365635 -11.859375 16.5078125 C-13.47782736 13.18099375 -13.43317831 10.84985376 -12.984375 7.1953125 C-9.63000747 1.80436469 -6.26285988 -0.07637634 0 0 Z " fill="#B88AEB" transform="translate(284.984375,23.8046875)"/>
<path d="M0 0 C-0.375 2.9375 -0.375 2.9375 -1 6 C-1.99 6.495 -1.99 6.495 -3 7 C-3 7.66 -3 8.32 -3 9 C-1.79601562 8.97679688 -0.59203125 8.95359375 0.6484375 8.9296875 C2.22395215 8.91093137 3.79947348 8.89273101 5.375 8.875 C6.1690625 8.85824219 6.963125 8.84148437 7.78125 8.82421875 C9.85492015 8.80664527 11.92883241 8.89664832 14 9 C14.66 9.66 15.32 10.32 16 11 C16.66 9.68 17.32 8.36 18 7 C18.99 7 19.98 7 21 7 C20.67 7.66 20.34 8.32 20 9 C22.12364481 9.22609337 22.12364481 9.22609337 23.625 7.5 C24.07875 7.005 24.5325 6.51 25 6 C25 7.32 25 8.64 25 10 C25.99 10.33 26.98 10.66 28 11 C28.495 14.465 28.495 14.465 29 18 C24.58874098 18.87226626 20.5591877 19.05766677 16.0703125 18.87890625 C14.78125 18.83056641 13.4921875 18.78222656 12.1640625 18.73242188 C10.81770275 18.67591408 9.47134864 18.61927179 8.125 18.5625 C6.75522999 18.50920597 5.3854383 18.45646622 4.015625 18.40429688 C0.67682977 18.27497734 -2.66163941 18.14002445 -6 18 C-6.99 20.97 -7.98 23.94 -9 27 C-12.3 27 -15.6 27 -19 27 C-15.62702703 14.28648649 -15.62702703 14.28648649 -11.3125 10.875 C-10.549375 10.25625 -9.78625 9.6375 -9 9 C-8.95834635 7.33385392 -8.95834635 5.66614608 -9 4 C-6.32031823 0.3278435 -4.49792702 -0.49976967 0 0 Z " fill="#B586E7" transform="translate(199,100)"/>
<path d="M0 0 C2.39572155 3.1942954 2.43468936 5.55146068 2.125 9.5 C0.84811154 12.30915461 -0.18599817 14.00106764 -2.6875 15.8125 C-6.73561621 17.08476509 -9.75487109 17.00914951 -13.625 15.25 C-16.07282948 13.34613263 -17.04807625 12.47692549 -17.875 9.5 C-17.68406041 4.24916129 -16.66650706 1.18317829 -12.875 -2.5 C-8.66896207 -4.67553686 -3.51903675 -2.8152294 0 0 Z " fill="#B88DE9" transform="translate(298.875,148.5)"/>
<path d="M0 0 C3.58311824 2.57049787 4.78702567 4.25458985 6 8.5 C6 12.41354478 5.35967923 13.94115656 3 17 C0.53942818 19.46057182 -0.40721905 19.37747115 -3.8125 19.5 C-6.61579808 19.4432038 -8.39434236 19.38772785 -10.76953125 17.8671875 C-13.02400166 15.38532094 -13.96417583 13.21942305 -14.5 9.9375 C-13.81143001 5.89215133 -12.5750875 3.18131562 -9.25 0.6875 C-5.93788168 -0.32453615 -3.44560774 -0.42314481 0 0 Z " fill="#B68AE9" transform="translate(174,24)"/>
<path d="M0 0 C0.495 0.99 0.495 0.99 1 2 C1.66 2 2.32 2 3 2 C3.05875981 6.12493872 3.09384938 10.24976768 3.125 14.375 C3.14175781 15.53128906 3.15851563 16.68757813 3.17578125 17.87890625 C3.2310237 27.65681974 3.204878 38.5122515 -4 46 C-13.86451287 52.42712184 -24.70947021 53.59707138 -36.18359375 51.38671875 C-42.86183679 49.28413738 -47.29666094 45.97634656 -51 40 C-51.99758418 37.6138865 -52.52004252 35.5597732 -53 33 C-51.515 32.505 -51.515 32.505 -50 32 C-49.731875 32.66386719 -49.46375 33.32773438 -49.1875 34.01171875 C-46.32899508 40.4527578 -43.56087431 44.19565015 -37 47 C-28.58055335 49.78849195 -17.90756527 48.90309312 -10 45 C-5.20297452 42.12178471 -2.64707802 38.2824911 -1 33 C-0.37182411 27.33533801 -0.30204404 21.69458673 -0.25 16 C-0.22180317 14.44658181 -0.19187062 12.89319411 -0.16015625 11.33984375 C-0.08672928 7.55995091 -0.03688834 3.78041878 0 0 Z " fill="#231449" transform="translate(171,78)"/>
<path d="M0 0 C2.97 0 5.94 0 9 0 C9.390625 1.98567708 9.78125 3.97135417 10.171875 5.95703125 C11.27216391 8.67142322 12.48070881 9.53662042 15 11 C17.541597 11.70631855 17.541597 11.70631855 20.1875 12.0625 C22.85546875 12.47265625 22.85546875 12.47265625 25 13 C25.33 13.66 25.66 14.32 26 15 C25.01 15 24.02 15 23 15 C23 16.32 23 17.64 23 19 C26.96 19.33 30.92 19.66 35 20 C28.45655163 23.27172418 21.17403599 22.87933025 14.0703125 21.3828125 C7.78570653 19.22427002 4.21563652 15.77865308 1 10 C-0.1577506 6.52674819 -0.06866652 3.63932552 0 0 Z " fill="#AA7ED9" transform="translate(121,105)"/>
<path d="M0 0 C2.97 0 5.94 0 9 0 C9.390625 1.98567708 9.78125 3.97135417 10.171875 5.95703125 C11.30749867 8.75859342 12.32442203 9.5753416 15 11 C17.64902575 11.36917274 20.09559527 11.59968888 22.75 11.6875 C23.79607422 11.73874023 23.79607422 11.73874023 24.86328125 11.79101562 C26.57497108 11.87308295 28.2874576 11.93822919 30 12 C30 12.33 30 12.66 30 13 C28.51886719 13.03867188 28.51886719 13.03867188 27.0078125 13.078125 C25.72648437 13.13484375 24.44515625 13.1915625 23.125 13.25 C21.84882812 13.29640625 20.57265625 13.3428125 19.2578125 13.390625 C15.90811895 13.62555056 15.90811895 13.62555056 14.5546875 16.046875 C14.37164062 16.69140625 14.18859375 17.3359375 14 18 C19.56069582 20.25433614 25.0785651 20.59961828 31 21 C31 21.33 31 21.66 31 22 C28.79194476 22.0544452 26.58349446 22.09299283 24.375 22.125 C23.14523438 22.14820312 21.91546875 22.17140625 20.6484375 22.1953125 C13.58584571 21.81722943 8.64830738 18.99682392 3.25 14.5625 C-0.39248694 10.00939133 -0.18851016 5.56104975 0 0 Z " fill="#B283E5" transform="translate(59,105)"/>
<path d="M0 0 C4.95 0 9.9 0 15 0 C15.33 11.88 15.66 23.76 16 36 C15.34 36 14.68 36 14 36 C13.67 37.32 13.34 38.64 13 40 C13 27.79 13 15.58 13 3 C9.37 3 5.74 3 2 3 C2 13.56 2 24.12 2 35 C0.515 35.495 0.515 35.495 -1 36 C-1.024759 31.51595436 -1.04288799 27.03194519 -1.05493164 22.54785156 C-1.05995365 21.02310493 -1.0667725 19.49836309 -1.07543945 17.97363281 C-1.08759849 15.77928481 -1.09324968 13.5850006 -1.09765625 11.390625 C-1.10289307 10.07094727 -1.10812988 8.75126953 -1.11352539 7.39160156 C-1 4 -1 4 0 0 Z " fill="#201245" transform="translate(96,70)"/>
<path d="M0 0 C4.95 0 9.9 0 15 0 C15.89694794 3.58779175 16.08304117 6.34618837 16 10 C15.34 10 14.68 10 14 10 C13.67 20.23 13.34 30.46 13 41 C12.67 41 12.34 41 12 41 C12 28.46 12 15.92 12 3 C8.7 3 5.4 3 2 3 C2 14.88 2 26.76 2 39 C1.01 39.495 1.01 39.495 0 40 C-1.55953462 26.60471155 -1.10558815 13.40525637 0 0 Z " fill="#2E1950" transform="translate(158,70)"/>
<path d="M0 0 C4.26301575 0.81981072 6.50446826 1.46730337 9.5 4.6875 C11.37252925 8.82266875 11.40957678 10.69295982 10 15 C7.68701401 17.7515338 5.07192006 19.59440863 1.6875 20.875 C1.130625 20.91625 0.57375 20.9575 0 21 C-1.55606751 19.44393249 -1.12970769 17.94042629 -1.1328125 15.78125 C-1.13410156 14.93175781 -1.13539062 14.08226562 -1.13671875 13.20703125 C-1.13285156 12.31371094 -1.12898437 11.42039063 -1.125 10.5 C-1.12886719 9.60667969 -1.13273438 8.71335938 -1.13671875 7.79296875 C-1.13542969 6.94347656 -1.13414063 6.09398437 -1.1328125 5.21875 C-1.13168457 4.43435547 -1.13055664 3.64996094 -1.12939453 2.84179688 C-1 1 -1 1 0 0 Z " fill="#B88AEB" transform="translate(1,145)"/>
<path d="M0 0 C0.66 0 1.32 0 2 0 C1.875 1.8125 1.875 1.8125 1 4 C-3.18846316 6.53379125 -6.33654278 7.37521619 -11.20141602 7.37231445 C-12.40609024 7.37854324 -13.61076447 7.38477203 -14.85194397 7.39118958 C-16.13959152 7.38197983 -17.42723907 7.37277008 -18.75390625 7.36328125 C-20.10098775 7.36276193 -21.44807001 7.3632824 -22.79515076 7.36479187 C-25.61021323 7.36470244 -28.42498758 7.35433184 -31.23999023 7.33618164 C-34.84010902 7.31347342 -38.43980824 7.3129574 -42.03997898 7.31969929 C-44.81873779 7.32304737 -47.59740172 7.31639378 -50.3761425 7.30657005 C-52.34642122 7.30087514 -54.31671611 7.30215069 -56.28700256 7.30354309 C-57.48852463 7.29401108 -58.69004669 7.28447906 -59.92797852 7.2746582 C-60.98243668 7.27005081 -62.03689484 7.26544342 -63.12330627 7.26069641 C-66.10140409 6.99081039 -68.29947082 6.25167329 -71 5 C-67.87687114 4.02804228 -65.5365298 4.03105021 -62.3125 4.5 C-60.88015017 4.70629588 -59.44238972 4.88297041 -58 5 C-57.67 4.67 -57.34 4.34 -57 4 C-55.13889989 3.89958434 -53.27396229 3.86918347 -51.41015625 3.8671875 C-50.2411377 3.86541504 -49.07211914 3.86364258 -47.86767578 3.86181641 C-46.61196777 3.86616699 -45.35625977 3.87051758 -44.0625 3.875 C-42.79390137 3.8754834 -41.52530273 3.8759668 -40.21826172 3.87646484 C-32.29049027 3.90564436 -24.40513502 4.09304893 -16.50805664 4.81982422 C-12.16576334 5.16548476 -9.04048025 4.58816565 -5 3 C-3.33911955 2.63893903 -1.67381019 2.29537827 0 2 C0 1.34 0 0.68 0 0 Z " fill="#B795E5" transform="translate(271,158)"/>
<path d="M0 0 C0.66 0 1.32 0 2 0 C3.3417678 3.26743656 4.67194359 6.53946908 6 9.8125 C6.3815625 10.74126953 6.763125 11.67003906 7.15625 12.62695312 C7.5171875 13.51962891 7.878125 14.41230469 8.25 15.33203125 C8.58515625 16.15421143 8.9203125 16.9763916 9.265625 17.82348633 C10 20 10 20 10 23 C4.06 23 -1.88 23 -8 23 C-5.99307639 14.97230556 -3.3411405 7.56708897 0 0 Z M1 8 C0.3490741 9.24735567 -0.29551669 10.49801832 -0.9375 11.75 C-1.47697266 12.79414062 -1.47697266 12.79414062 -2.02734375 13.859375 C-3.18922956 16.24545543 -3.18922956 16.24545543 -4 20 C-1.03 20 1.94 20 5 20 C4.40075776 15.80530429 3.42500059 11.99000166 2 8 C1.67 8 1.34 8 1 8 Z " fill="#28134C" transform="translate(206,86)"/>
<path d="M0 0 C6.36363636 2.54545455 6.36363636 2.54545455 8 5 C9.19440419 9.8572437 9.56018033 11.83654854 7.375 16.375 C5 19 5 19 0 21 C0 14.07 0 7.14 0 0 Z " fill="#B989EB" transform="translate(0,24)"/>
<path d="M0 0 C2.94366879 4.41550318 5 7.61090125 5 13 C-0.28 13 -5.56 13 -11 13 C-12.32 10.36 -13.64 7.72 -15 5 C-26.385 4.505 -26.385 4.505 -38 4 C-38 3.67 -38 3.34 -38 3 C-33.91924492 2.65800236 -29.83672231 2.38518649 -25.75 2.125 C-24.59113281 2.02703125 -23.43226563 1.9290625 -22.23828125 1.828125 C-13.87790933 1.34486651 -13.87790933 1.34486651 -11.31054688 3.26074219 C-9.8093651 5.43838242 -9 7.33845385 -9 10 C-5.7 10 -2.4 10 1 10 C0.67 6.7 0.34 3.4 0 0 Z " fill="#200F40" transform="translate(233,117)"/>
<path d="M0 0 C0.27972656 0.56460938 0.55945313 1.12921875 0.84765625 1.7109375 C1.60967048 3.22463356 2.38814175 4.73016764 3.18359375 6.2265625 C6.22292403 12.04011014 8.2815008 17.66868714 10 24 C6.7 24 3.4 24 0 24 C-1.5625 21.1875 -1.5625 21.1875 -3 18 C-2.505 16.515 -2.505 16.515 -2 15 C-0.0625 14.25 -0.0625 14.25 2 14 C2.66 14.33 3.32 14.66 4 15 C3.40138258 12.64828869 2.73075648 10.3140622 2 8 C1.34 7.67 0.68 7.34 0 7 C0 4.69 0 2.38 0 0 Z " fill="#A87DD6" transform="translate(224,103)"/>
<path d="M0 0 C0.33 0 0.66 0 1 0 C1.33 10.89 1.66 21.78 2 33 C2.33 33 2.66 33 3 33 C3.71001899 39.53217475 1.68620124 44.57972663 -2 50 C-3.485 50.495 -3.485 50.495 -5 51 C-5.99 50.34 -6.98 49.68 -8 49 C-7.401875 48.505 -6.80375 48.01 -6.1875 47.5 C-1.23293813 41.83764358 -0.54830748 35.339879 -0.48828125 28.125 C-0.47033005 27.31506592 -0.45237885 26.50513184 -0.43388367 25.6706543 C-0.38021475 23.11382065 -0.34602636 20.55716888 -0.3125 18 C-0.27928842 16.25388117 -0.24479527 14.50778621 -0.20898438 12.76171875 C-0.12451413 8.50794475 -0.05749805 4.25422059 0 0 Z " fill="#3C2361" transform="translate(108,73)"/>
<path d="M0 0 C0.33 0.66 0.66 1.32 1 2 C1.66 2 2.32 2 3 2 C3.02920143 6.18748519 3.04686646 10.37494391 3.0625 14.5625 C3.07087891 15.74392578 3.07925781 16.92535156 3.08789062 18.14257812 C3.10392999 23.86863072 3.0510705 29.36394482 2 35 C1.34 35 0.68 35 0 35 C-0.33 35.66 -0.66 36.32 -1 37 C-0.67 24.79 -0.34 12.58 0 0 Z " fill="#1D0938" transform="translate(171,78)"/>
<path d="M0 0 C0.99 0.33 1.98 0.66 3 1 C2.67 1.66 2.34 2.32 2 3 C4.12364481 3.22609337 4.12364481 3.22609337 5.625 1.5 C6.305625 0.7575 6.305625 0.7575 7 0 C7 1.32 7 2.64 7 4 C7.99 4.33 8.98 4.66 10 5 C10.33 7.31 10.66 9.62 11 12 C7.01674911 13.13807168 5.42548577 13.20486352 1.625 11.375 C-1 9 -1 9 -1.4375 6.5 C-1.05112742 4.2921567 -0.6367675 2.14909031 0 0 Z " fill="#B888ED" transform="translate(217,106)"/>
<path d="M0 0 C-6.28540459 5.27973986 -12.11544461 6.47820174 -20.0625 6.3125 C-20.83916016 6.31572266 -21.61582031 6.31894531 -22.41601562 6.32226562 C-26.98816375 6.27967999 -30.69969616 5.72700202 -35 4 C-35 3.67 -35 3.34 -35 3 C-34.36835937 3.02320312 -33.73671875 3.04640625 -33.0859375 3.0703125 C-22.8241096 3.27732344 -9.19182954 -2.62623701 0 0 Z " fill="#170C3C" transform="translate(104,124)"/>
<path d="M0 0 C3.77323546 2.7068863 4.83964191 4.24755052 5.8125 8.8125 C5.874375 9.864375 5.93625 10.91625 6 12 C3.37613513 8.93882432 3 8.26826873 3 4 C-0.3 3.67 -3.6 3.34 -7 3 C-7.9590625 4.670625 -7.9590625 4.670625 -8.9375 6.375 C-9.29714844 7.00148438 -9.65679687 7.62796875 -10.02734375 8.2734375 C-10.71719051 9.49798475 -11.37144538 10.74289077 -12 12 C-10.68 12 -9.36 12 -8 12 C-8 13.32 -8 14.64 -8 16 C-8.99 16.33 -9.98 16.66 -11 17 C-13.1773029 14.64125519 -13.9633342 13.28721541 -14.375 10.0625 C-13.94784142 6.57403822 -13.15059932 4.76505626 -11 2 C-7.57840405 -0.56619697 -4.15155867 -0.50984054 0 0 Z " fill="#B599DE" transform="translate(174,24)"/>
<path d="M0 0 C2.97 0 5.94 0 9 0 C9 9.57 9 19.14 9 29 C8.67 29 8.34 29 8 29 C7.97494385 28.25838623 7.9498877 27.51677246 7.92407227 26.75268555 C7.80813868 23.39744672 7.68540015 20.04249056 7.5625 16.6875 C7.52318359 15.52025391 7.48386719 14.35300781 7.44335938 13.15039062 C7.40146484 12.03212891 7.35957031 10.91386719 7.31640625 9.76171875 C7.27974854 8.73006592 7.24309082 7.69841309 7.20532227 6.63549805 C7.09838758 3.89251742 7.09838758 3.89251742 6 1 C5.01 1.33 4.02 1.66 3 2 C2.34 1.67 1.68 1.34 1 1 C1.04600342 2.11036621 1.09200684 3.22073242 1.1394043 4.36474609 C1.30568599 8.47541909 1.45192321 12.58660101 1.59204102 16.69824219 C1.65555993 18.47937098 1.7245502 20.26031326 1.79907227 22.04101562 C1.90511241 24.59736595 1.99160304 27.15373651 2.07421875 29.7109375 C2.11157639 30.50994476 2.14893402 31.30895203 2.18742371 32.13217163 C2.2487793 34.37646484 2.2487793 34.37646484 2 38 C1.01 38.66 0.02 39.32 -1 40 C-0.67 26.8 -0.34 13.6 0 0 Z " fill="#A57DD0" transform="translate(161,73)"/>
<path d="M0 0 C9.24 0 18.48 0 28 0 C27.67 0.66 27.34 1.32 27 2 C19.08 2.33 11.16 2.66 3 3 C2.01 5.64 1.02 8.28 0 11 C-0.99 11.495 -0.99 11.495 -2 12 C-3.76931551 6.69205346 -2.54436128 5.936843 0 0 Z " fill="#331D5A" transform="translate(193,118)"/>
<path d="M0 0 C0.66 0 1.32 0 2 0 C1.875 1.8125 1.875 1.8125 1 4 C-4.60427493 7.93129508 -10.40276442 7.38474342 -16.9609375 7.29296875 C-18.10664215 7.28872391 -19.2523468 7.28447906 -20.43276978 7.28010559 C-24.08042215 7.2633564 -27.72751551 7.22570991 -31.375 7.1875 C-33.85285659 7.17244836 -36.33072186 7.15876079 -38.80859375 7.14648438 C-44.87258552 7.11346512 -50.93625281 7.06330259 -57 7 C-57 6.67 -57 6.34 -57 6 C-56.43703217 5.99191315 -55.87406433 5.98382629 -55.29403687 5.97549438 C-49.42122256 5.8892677 -43.54873876 5.7897566 -37.67626953 5.68261719 C-35.48622194 5.6443942 -33.296113 5.60952978 -31.10595703 5.578125 C-27.95322788 5.53232957 -24.80091862 5.47435851 -21.6484375 5.4140625 C-20.67321136 5.40251129 -19.69798523 5.39096008 -18.69320679 5.37905884 C-13.727549 5.27187152 -9.6674362 4.88093418 -5 3 C-3.33911955 2.63893903 -1.67381019 2.29537827 0 2 C0 1.34 0 0.68 0 0 Z " fill="#B398D9" transform="translate(271,158)"/>
<path d="M0 0 C0.33 0 0.66 0 1 0 C0.88437394 1.39664108 0.757008 2.79231199 0.625 4.1875 C0.55539063 4.96480469 0.48578125 5.74210937 0.4140625 6.54296875 C0 9 0 9 -2 14 C1.63 14 5.26 14 9 14 C9 14.99 9 15.98 9 17 C4.38 17 -0.24 17 -5 17 C-6.34581972 12.96254085 -5.19157055 11.27844375 -3.625 7.375 C-3.16351563 6.20710938 -2.70203125 5.03921875 -2.2265625 3.8359375 C-1 1 -1 1 0 0 Z " fill="#221345" transform="translate(182,113)"/>
<path d="M0 0 C0.33 0 0.66 0 1 0 C1.1239816 5.30183459 1.21451776 10.60281794 1.2746582 15.90576172 C1.29973866 17.70799466 1.33381188 19.51012651 1.37719727 21.31201172 C1.4381375 23.90878277 1.46627346 26.50420465 1.48828125 29.1015625 C1.51408768 29.9017984 1.5398941 30.7020343 1.56648254 31.52651978 C1.56851521 35.61889098 1.23589447 38.24833617 -1.32348633 41.53271484 C-4 44 -4 44 -7.3125 44.375 C-8.6428125 44.189375 -8.6428125 44.189375 -10 44 C-8.02 43.505 -8.02 43.505 -6 43 C-6 42.01 -6 41.02 -6 40 C-5.34 40 -4.68 40 -4 40 C-3.87625 38.865625 -3.7525 37.73125 -3.625 36.5625 C-3.315625 34.7990625 -3.315625 34.7990625 -3 33 C-2.01 32.505 -2.01 32.505 -1 32 C-0.67 21.44 -0.34 10.88 0 0 Z " fill="#3C2565" transform="translate(98,73)"/>
<path d="M0 0 C0.99 0.33 1.98 0.66 3 1 C2.45871375 5.60093315 1.00966632 8.47648821 -2 12 C-9.97442563 17.2668926 -9.97442563 17.2668926 -14.81640625 16.62890625 C-15.89728516 16.31759766 -15.89728516 16.31759766 -17 16 C-17 15.34 -17 14.68 -17 14 C-16.11248047 13.74476562 -16.11248047 13.74476562 -15.20703125 13.484375 C-7.35219522 11.14268161 -7.35219522 11.14268161 -2.03515625 5.1875 C-1.29064413 3.485758 -0.63747332 1.74466383 0 0 Z " fill="#26174C" transform="translate(169,112)"/>
<path d="M0 0 C0.99 0.33 1.98 0.66 3 1 C5.56634861 1.22718496 8.11678107 1.41608184 10.6875 1.5625 C11.38939453 1.60568359 12.09128906 1.64886719 12.81445312 1.69335938 C14.54275206 1.7991736 16.2713511 1.90006581 18 2 C18 2.33 18 2.66 18 3 C16.51886719 3.03867188 16.51886719 3.03867188 15.0078125 3.078125 C13.72648437 3.13484375 12.44515625 3.1915625 11.125 3.25 C9.84882812 3.29640625 8.57265625 3.3428125 7.2578125 3.390625 C3.90811895 3.62555056 3.90811895 3.62555056 2.5546875 6.046875 C2.37164062 6.69140625 2.18859375 7.3359375 2 8 C7.56069582 10.25433614 13.0785651 10.59961828 19 11 C19 11.33 19 11.66 19 12 C16.79194476 12.0544452 14.58349446 12.09299283 12.375 12.125 C11.14523438 12.14820312 9.91546875 12.17140625 8.6484375 12.1953125 C2.29255407 11.85506178 -1.87472706 9.66090924 -7 6 C-3.86650268 4.95550089 -3.01031744 5.06576355 0 6 C0 5.34 0 4.68 0 4 C0.66 4 1.32 4 2 4 C2 3.34 2 2.68 2 2 C1.34 2 0.68 2 0 2 C0 1.34 0 0.68 0 0 Z " fill="#9169BD" transform="translate(71,115)"/>
<path d="M0 0 C2.64 0 5.28 0 8 0 C8 2.97 8 5.94 8 9 C3.25 10.125 3.25 10.125 1 9 C0.5859375 6.93359375 0.5859375 6.93359375 0.375 4.4375 C0.30023438 3.61121094 0.22546875 2.78492187 0.1484375 1.93359375 C0.09945312 1.29550781 0.05046875 0.65742187 0 0 Z " fill="#B788E7" transform="translate(122,105)"/>
<path d="M0 0 C0.66 0 1.32 0 2 0 C1.95875 1.11375 1.9175 2.2275 1.875 3.375 C1.58878141 7.04366025 1.58878141 7.04366025 4 9 C3.34 9 2.68 9 2 9 C1.67 10.32 1.34 11.64 1 13 C-0.65 13 -2.3 13 -4 13 C-4 12.01 -4 11.02 -4 10 C-4.66 10 -5.32 10 -6 10 C-6.33 10.66 -6.66 11.32 -7 12 C-7 10.68 -7 9.36 -7 8 C-6.34 8 -5.68 8 -5 8 C-4.731875 7.4225 -4.46375 6.845 -4.1875 6.25 C-2.97070811 3.94449957 -1.69666121 1.97943808 0 0 Z " fill="#B686E9" transform="translate(204,77)"/>
<path d="M0 0 C0.66 0 1.32 0 2 0 C2 8.58 2 17.16 2 26 C1.34 26.33 0.68 26.66 0 27 C-1.00665982 18.35351117 -1.38615987 9.69995465 -1 1 C-0.67 0.67 -0.34 0.34 0 0 Z " fill="#1E1147" transform="translate(158,83)"/>
<path d="M0 0 C0.33 0 0.66 0 1 0 C1.1239816 5.30183459 1.21451776 10.60281794 1.2746582 15.90576172 C1.29973866 17.70799466 1.33381188 19.51012651 1.37719727 21.31201172 C1.4381375 23.90878277 1.46627346 26.50420465 1.48828125 29.1015625 C1.51408768 29.9017984 1.5398941 30.7020343 1.56648254 31.52651978 C1.56858202 35.75341304 1.21540654 38.24263835 -1.53051758 41.55615234 C-2.34544678 42.36262207 -3.16037598 43.1690918 -4 44 C-4.99 43.67 -5.98 43.34 -7 43 C-6.54625 42.4225 -6.0925 41.845 -5.625 41.25 C-4.15886484 39.2199667 -3.05142216 37.26460157 -2 35 C-1.67 35.33 -1.34 35.66 -1 36 C-0.67 24.12 -0.34 12.24 0 0 Z " fill="#3A1C60" transform="translate(160,73)"/>
<path d="M0 0 C4.66638772 6.99958158 7 14.61212538 7 23 C4.42973743 20.42973743 3.74639915 17.97109768 2.5 14.5625 C1.20534807 11.02983697 0.09078648 8.13617972 -2 5 C-1.48275862 1.48275862 -1.48275862 1.48275862 0 0 Z " fill="#2E1B56" transform="translate(227,102)"/>
<path d="M0 0 C2.34057617 0.18164062 2.34057617 0.18164062 4.65307617 2.86914062 C6.29444253 6.091082 6.75508733 7.65829574 6.34057617 11.18164062 C5.35057617 10.85164062 4.36057617 10.52164063 3.34057617 10.18164062 C2.35057617 7.87164062 1.36057617 5.56164062 0.34057617 3.18164062 C-11.04442383 2.68664062 -11.04442383 2.68664062 -22.65942383 2.18164062 C-22.65942383 1.85164063 -22.65942383 1.52164063 -22.65942383 1.18164062 C-19.43036232 1.01289467 -16.20115972 0.84701326 -12.97192383 0.68164062 C-12.05991211 0.63394531 -11.14790039 0.58625 -10.20825195 0.53710938 C-9.32202148 0.49199219 -8.43579102 0.446875 -7.52270508 0.40039062 C-6.71099854 0.35849609 -5.89929199 0.31660156 -5.06298828 0.2734375 C-3.37409733 0.20893542 -1.68619377 0.11516829 0 0 Z " fill="#181648" transform="translate(217.659423828125,118.818359375)"/>
<path d="M0 0 C0.33 0 0.66 0 1 0 C1.33 2.97 1.66 5.94 2 9 C4.31 9 6.62 9 9 9 C8.814375 9.928125 8.62875 10.85625 8.4375 11.8125 C7.75876119 15.01343771 7.75876119 15.01343771 9 18 C4.78220697 16.49364535 3.2252326 13.75987578 1 10 C-0.1577506 6.52674819 -0.06866652 3.63932552 0 0 Z M9 6 C9.99 7.485 9.99 7.485 11 9 C10.34 9 9.68 9 9 9 C9 8.01 9 7.02 9 6 Z " fill="#A378CE" transform="translate(121,105)"/>
<path d="M0 0 C-0.375 2.9375 -0.375 2.9375 -1 6 C-1.99 6.495 -1.99 6.495 -3 7 C-2.67 7.99 -2.34 8.98 -2 10 C-2.99 10.33 -3.98 10.66 -5 11 C-5 9.35 -5 7.7 -5 6 C-6.32 6.33 -7.64 6.66 -9 7 C-9 4 -9 4 -7.3125 1.8125 C-4.6038423 -0.31050198 -3.35291118 -0.37254569 0 0 Z " fill="#B988EC" transform="translate(199,100)"/>
<path d="M0 0 C2.34914492 2.34914492 2.73140357 3.95679446 3.625 7.125 C3.88539063 8.03507812 4.14578125 8.94515625 4.4140625 9.8828125 C4.70410156 10.93082031 4.70410156 10.93082031 5 12 C1.7 12 -1.6 12 -5 12 C-3.68 11.34 -2.36 10.68 -1 10 C-1.66 9.67 -2.32 9.34 -3 9 C-2.67 8.01 -2.34 7.02 -2 6 C-1.34 5.67 -0.68 5.34 0 5 C-0.33 4.34 -0.66 3.68 -1 3 C-0.67 2.01 -0.34 1.02 0 0 Z " fill="#9F76CC" transform="translate(229,115)"/>
<path d="M0 0 C5.94 0 11.88 0 18 0 C17.34 1.32 16.68 2.64 16 4 C10.55306686 4.09688221 5.36095333 4.12862175 0 3 C0 2.01 0 1.02 0 0 Z " fill="#201847" transform="translate(137,113)"/>
<path d="M0 0 C-6.46153846 5.07692308 -6.46153846 5.07692308 -10.03125 4.8984375 C-12.02813923 4.652342 -14.01537895 4.33077017 -16 4 C-11.95384951 -0.04615049 -5.4704121 -1.94111397 0 0 Z " fill="#231448" transform="translate(104,124)"/>
<path d="M0 0 C0.66 0.99 1.32 1.98 2 3 C1.2575 4.1446875 1.2575 4.1446875 0.5 5.3125 C-1.24368308 7.92363751 -1.24368308 7.92363751 -1 11 C1.97 11.495 1.97 11.495 5 12 C5 12.66 5 13.32 5 14 C1.7 14 -1.6 14 -5 14 C-3.70022952 9.1008651 -2.07626313 4.62440425 0 0 Z " fill="#9B73C6" transform="translate(185,113)"/>
<path d="M0 0 C1.4606285 2.64738916 2 3.89448334 2 7 C3.65 7.33 5.3 7.66 7 8 C7 8.99 7 9.98 7 11 C11.95 11.33 16.9 11.66 22 12 C22 12.33 22 12.66 22 13 C6.70596798 13.49781659 6.70596798 13.49781659 1.5625 8.75 C-0.24978804 5.56037306 -0.33593482 3.61129927 0 0 Z " fill="#45286A" transform="translate(130,105)"/>
<path d="M0 0 C0.66 0 1.32 0 2 0 C3 3 3 3 1.5625 6.1875 C0.7890625 7.5796875 0.7890625 7.5796875 0 9 C1.32 9 2.64 9 4 9 C4 10.32 4 11.64 4 13 C3.01 13.33 2.02 13.66 1 14 C-1.21826259 11.59688219 -1.96867203 10.30074854 -2.3125 7 C-2.01350896 4.12968603 -1.49648497 2.43178808 0 0 Z " fill="#B08EDA" transform="translate(162,27)"/>
<path d="M0 0 C2.8203125 -0.29296875 2.8203125 -0.29296875 6.125 -0.1875 C7.76855469 -0.14689453 7.76855469 -0.14689453 9.4453125 -0.10546875 C10.28835937 -0.07066406 11.13140625 -0.03585938 12 0 C12.33 0.99 12.66 1.98 13 3 C8.05 3 3.1 3 -2 3 C-1.34 2.01 -0.68 1.02 0 0 Z " fill="#1E0B3D" transform="translate(140,127)"/>
<path d="M0 0 C6.09411765 2.14117647 6.09411765 2.14117647 8 5 C8.54659898 7.67992702 8.7756791 10.26328507 9 13 C7 10 7 10 7 7 C6.01 7 5.02 7 4 7 C4 6.34 4 5.68 4 5 C3.01 5 2.02 5 1 5 C0.67 5.66 0.34 6.32 0 7 C0 4.69 0 2.38 0 0 Z " fill="#B68FE9" transform="translate(0,24)"/>
<path d="M0 0 C2.86888993 2.31362091 3.94248597 3.81730837 5.0625 7.375 C5 11 5 11 2.9375 14.3125 C-0.05966401 17.05458622 -2.08561359 18.08967758 -6 19 C-6.33 18.34 -6.66 17.68 -7 17 C-5.865625 16.731875 -4.73125 16.46375 -3.5625 16.1875 C-2.386875 15.795625 -1.21125 15.40375 0 15 C0.33 14.01 0.66 13.02 1 12 C1.66 12 2.32 12 3 12 C2.49202991 7.6822542 1.80317221 3.96697886 0 0 Z " fill="#B397D5" transform="translate(7,147)"/>
<path d="M0 0 C1.125 1.75 1.125 1.75 2 4 C1.125 6.25 1.125 6.25 0 8 C-0.66 8 -1.32 8 -2 8 C-1.67 9.98 -1.34 11.96 -1 14 C-3.475 15.485 -3.475 15.485 -6 17 C-4.33846988 11.14340094 -2.52958084 5.5409866 0 0 Z " fill="#A578D0" transform="translate(192,96)"/>
<path d="M0 0 C5.44858273 -0.3335867 9.22331332 0.28384483 14 3 C15.4375 5.6875 15.4375 5.6875 16 8 C14.68 7.34 13.36 6.68 12 6 C12 5.34 12 4.68 12 4 C6.06 2.515 6.06 2.515 0 1 C0 0.67 0 0.34 0 0 Z " fill="#B096D0" transform="translate(258,145)"/>
<path d="M0 0 C0.66 0 1.32 0 2 0 C2 0.66 2 1.32 2 2 C5.3 2 8.6 2 12 2 C12 2.33 12 2.66 12 3 C9.03 3 6.06 3 3 3 C3 4.98 3 6.96 3 9 C2.01 9.495 2.01 9.495 1 10 C0.63720544 8.71073008 0.28503302 7.41846728 -0.0625 6.125 C-0.35833984 5.04605469 -0.35833984 5.04605469 -0.66015625 3.9453125 C-1 2 -1 2 0 0 Z " fill="#311C52" transform="translate(56,102)"/>
<path d="M0 0 C0.99 1.485 0.99 1.485 2 3 C2.66 3 3.32 3 4 3 C6.125 7.625 6.125 7.625 5 11 C3 11 3 11 1.375 9.4375 C-0.45512039 6.19319567 -0.21131282 3.66275561 0 0 Z " fill="#AF8DD9" transform="translate(272,31)"/>
<path d="M0 0 C0.66 0.33 1.32 0.66 2 1 C1 4 1 4 -0.6875 5.1875 C-3.64599372 6.22697077 -5.88469348 6.33141559 -9 6 C-9.99 5.01 -10.98 4.02 -12 3 C-8.04 3 -4.08 3 0 3 C0 2.01 0 1.02 0 0 Z " fill="#B799DA" transform="translate(297,159)"/>
<path d="M0 0 C1.06032743 3.18098228 0.9708943 4.36533728 0.3125 7.5625 C0.16425781 8.34753906 0.01601562 9.13257812 -0.13671875 9.94140625 C-1 12 -1 12 -3.08203125 13.27734375 C-3.71496094 13.51582031 -4.34789062 13.75429687 -5 14 C-4.54636829 12.41531323 -4.08688548 10.83230076 -3.625 9.25 C-3.36976563 8.36828125 -3.11453125 7.4865625 -2.8515625 6.578125 C-2.0790066 4.23919428 -1.16374324 2.16557438 0 0 Z " fill="#1D1346" transform="translate(192,88)"/>
<path d="M0 0 C-0.804375 0.3403125 -0.804375 0.3403125 -1.625 0.6875 C-3.75116293 1.86248478 -5.25498127 3.03384262 -7.0625 4.625 C-10 7 -10 7 -13 7 C-10.66265451 0.83790735 -6.22059253 -0.43399483 0 0 Z " fill="#B393D9" transform="translate(286,24)"/>
<path d="M0 0 C0.47308594 0.33773437 0.94617187 0.67546875 1.43359375 1.0234375 C6.48779448 4.43231362 10.98870682 6.06769296 17 7 C17 7.33 17 7.66 17 8 C6.25148447 7.7896198 6.25148447 7.7896198 2.3125 4.5625 C0 2 0 2 0 0 Z " fill="#2B124E" transform="translate(63,120)"/>
<path d="M0 0 C0.99 0 1.98 0 3 0 C1.5682479 5.01113235 -0.98445693 6.94469549 -5 10 C-5.66 9.67 -6.32 9.34 -7 9 C-6.38125 8.773125 -5.7625 8.54625 -5.125 8.3125 C-2.3634551 6.60683991 -1.98483805 5.03027091 -1 2 C-0.67 1.34 -0.34 0.68 0 0 Z " fill="#A177CA" transform="translate(165,115)"/>
<path d="M0 0 C2 1 2 1 3.125 3.875 C4 7 4 7 4 10 C3.01 9.67 2.02 9.34 1 9 C-0.25 5.5625 -0.25 5.5625 -1 2 C-0.67 1.34 -0.34 0.68 0 0 Z " fill="#271A51" transform="translate(220,120)"/>
<path d="M0 0 C0.99 0.33 1.98 0.66 3 1 C2.50168276 4.68754757 1.89932357 6.60490662 -1 9 C-1.99 8.67 -2.98 8.34 -4 8 C-3.2884375 7.13375 -3.2884375 7.13375 -2.5625 6.25 C-1.0515133 4.07417916 -0.45963849 2.57397552 0 0 Z " fill="#2B1957" transform="translate(157,108)"/>
<path d="M0 0 C4.29 0 8.58 0 13 0 C10 3 10 3 8.02734375 3.14453125 C7.33769531 3.03496094 6.64804687 2.92539062 5.9375 2.8125 C5.24527344 2.71582031 4.55304688 2.61914062 3.83984375 2.51953125 C2 2 2 2 0 0 Z " fill="#AF94DD" transform="translate(288,24)"/>
<path d="M0 0 C1.93681161 -0.08107583 3.8745934 -0.13922475 5.8125 -0.1875 C6.89144531 -0.22230469 7.97039062 -0.25710937 9.08203125 -0.29296875 C12 0 12 0 13.88671875 1.51171875 C14.25410156 2.00285156 14.62148437 2.49398437 15 3 C14.01 3.66 13.02 4.32 12 5 C11.34 3.68 10.68 2.36 10 1 C6.7 1 3.4 1 0 1 C0 0.67 0 0.34 0 0 Z " fill="#371A59" transform="translate(202,72)"/>
<path d="M0 0 C0.33 0.99 0.66 1.98 1 3 C1.66 3.33 2.32 3.66 3 4 C1.25 8.875 1.25 8.875 -1 10 C-2.15837626 5.94568308 -1.83691257 3.78187881 0 0 Z " fill="#322355" transform="translate(192,120)"/>
<path d="M0 0 C0.33 0 0.66 0 1 0 C1.48828125 2.01822917 1.9765625 4.03645833 2.46484375 6.0546875 C2.94846992 8.0585657 2.94846992 8.0585657 4 10 C2.68 10.33 1.36 10.66 0 11 C-0.66 8.69 -1.32 6.38 -2 4 C-1.34 4 -0.68 4 0 4 C0 2.68 0 1.36 0 0 Z " fill="#A87ED5" transform="translate(67,105)"/>
<path d="M0 0 C0.66 0 1.32 0 2 0 C2.66 1.98 3.32 3.96 4 6 C2.02 6 0.04 6 -2 6 C-1.34 4.02 -0.68 2.04 0 0 Z " fill="#462467" transform="translate(206,86)"/>
<path d="M0 0 C0.66 0 1.32 0 2 0 C1.979375 0.94875 1.95875 1.8975 1.9375 2.875 C1.77448174 5.90666283 1.77448174 5.90666283 3 8 C1.68 8 0.36 8 -1 8 C-1.93065133 5.39417629 -2.14917407 4.35801776 -1.0625 1.75 C-0.711875 1.1725 -0.36125 0.595 0 0 Z " fill="#B989EA" transform="translate(130,114)"/>
<path d="M0 0 C1.98 0 3.96 0 6 0 C5.67 1.32 5.34 2.64 5 4 C4.34 3.67 3.68 3.34 3 3 C2.67 3.66 2.34 4.32 2 5 C1.34 5 0.68 5 0 5 C0 3.35 0 1.7 0 0 Z " fill="#1B0D40" transform="translate(204,92)"/>
<path d="M0 0 C0.33 0 0.66 0 1 0 C1.3125 2.3125 1.3125 2.3125 1 5 C-1.5 6.8125 -1.5 6.8125 -4 8 C-4 4.08147427 -2.54970541 2.85876061 0 0 Z " fill="#A57BCF" transform="translate(98,111)"/>
<path d="M0 0 C0.99 0 1.98 0 3 0 C4.49821059 3.37097383 5 5.20442119 5 9 C4.34 9 3.68 9 3 9 C2.01 6.03 1.02 3.06 0 0 Z " fill="#1E1341" transform="translate(129,103)"/>
<path d="M0 0 C1.32 0 2.64 0 4 0 C4 1.32 4 2.64 4 4 C1 5 1 5 -2 4 C-2 3.34 -2 2.68 -2 2 C-1.34 2 -0.68 2 0 2 C0 1.34 0 0.68 0 0 Z " fill="#B78BE8" transform="translate(63,105)"/>
<path d="M0 0 C2 3 2 3 1.625 5.1875 C1.41875 5.785625 1.2125 6.38375 1 7 C-0.32 7.33 -1.64 7.66 -3 8 C-1.125 2.25 -1.125 2.25 0 0 Z " fill="#331C58" transform="translate(203,94)"/>
<path d="M0 0 C0.66 0.33 1.32 0.66 2 1 C-2.625 5.875 -2.625 5.875 -6 7 C-6 6.01 -6 5.02 -6 4 C-5.01 4 -4.02 4 -3 4 C-3 3.34 -3 2.68 -3 2 C-2.01 1.34 -1.02 0.68 0 0 Z " fill="#B399D8" transform="translate(6,38)"/>
<path d="M0 0 C4.69978858 2.89217759 4.69978858 2.89217759 5.5546875 6.046875 C5.78597215 8.02330745 5.90062818 10.01256369 6 12 C0 3 0 3 0 0 Z " fill="#BDA3DC" transform="translate(3,25)"/>
<path d="M0 0 C0.66 0 1.32 0 2 0 C0.8141763 3.37503669 -0.27573689 5.64722731 -3 8 C-3.33 7.01 -3.66 6.02 -4 5 C-2.1875 2.3125 -2.1875 2.3125 0 0 Z " fill="#AE83D9" transform="translate(104,114)"/>
<path d="M0 0 C0.33 0 0.66 0 1 0 C1.25 6.625 1.25 6.625 -1 10 C-2.38125018 7.23749964 -2.19079306 5.05268901 -2 2 C-1.34 1.34 -0.68 0.68 0 0 Z " fill="#271C51" transform="translate(110,106)"/>
<path d="M0 0 C0 2.95274099 -0.43891831 4.49058403 -1.5 7.1875 C-1.7784375 7.90292969 -2.056875 8.61835937 -2.34375 9.35546875 C-2.5603125 9.89816406 -2.776875 10.44085938 -3 11 C-3.5534764 8.92446352 -4 7.15634036 -4 5 C-3.34 5 -2.68 5 -2 5 C-2.33 4.01 -2.66 3.02 -3 2 C-2.01 1.34 -1.02 0.68 0 0 Z " fill="#3B1F5E" transform="translate(190,100)"/>
<path d="M0 0 C1.32 0 2.64 0 4 0 C4 0.66 4 1.32 4 2 C3.34 2 2.68 2 2 2 C1.67 3.98 1.34 5.96 1 8 C0.67 8 0.34 8 0 8 C0 5.36 0 2.72 0 0 Z " fill="#9F76C3" transform="translate(59,105)"/>
</svg>
